<svg xmlns="http://www.w3.org/2000/svg" xmlns:xlink="http://www.w3.org/1999/xlink" width="85" height="85" viewBox="0 0 85 85">
  <defs>
    <clipPath id="clip-path">
      <rect id="Rect치ngulo_341119" data-name="Rect치ngulo 341119" width="82.675" height="82.664" fill="#34bc85"/>
    </clipPath>
  </defs>
  <g id="_34" data-name="34" transform="translate(-180 -11739)">
    <g id="Grupo_958003" data-name="Grupo 958003" transform="translate(181 11740)">
      <g id="Grupo_958002" data-name="Grupo 958002" clip-path="url(#clip-path)">
        <path id="Trazado_725916" data-name="Trazado 725916" d="M66.14,0a5.494,5.494,0,0,0-3.95,1.684L9.276,26.2a4.147,4.147,0,0,0-3.751,4.1v12.4H4.142A4.157,4.157,0,0,0,0,46.833v9.652a4.159,4.159,0,0,0,4.141,4.131H8.27v3.162a9.645,9.645,0,0,0,2.755,18.887H44.1a9.641,9.641,0,0,0,1.372-19.183V60.616h5.511a4.129,4.129,0,0,0,4.141-4.16V46.833a1.37,1.37,0,0,0-.1-.506l-1.036-2.591L67.1,10.948a5.49,5.49,0,0,0,1.8-.675v39.4a12.39,12.39,0,1,0,2.755,0V5.5A5.523,5.523,0,0,0,66.14,0Zm0,2.745A2.757,2.757,0,1,1,63.382,5.5,2.735,2.735,0,0,1,66.14,2.746M22.357,42.705H17.57l-1.857-6.189a1.378,1.378,0,1,0-2.637.791l1.617,5.4H8.281V34.183a4.054,4.054,0,0,0,1.372.253,4.157,4.157,0,0,0,4.141-4.128,4.1,4.1,0,0,0-1.025-2.683L60.632,5.445c0,.021-.005.036-.005.057a5.556,5.556,0,0,0,3.611,5.18L63,13.771H57.764l1.692-1.918a1.378,1.378,0,1,0-2.067-1.824l-16.673,18.9H28.947c-2.574,0-3.632,1.97-4.113,3.89Zm35.331-26.18H61.9L60.32,20.471Zm-2.9.614,3.267,4.9H50.468Zm-3.8,7.656h7.6l-2.645,6.617Zm-3.221.3,6.986,9.3L52.5,40.028,49.51,32.545c-.838-2.1-1.93-3.619-4.036-3.619H44.392ZM9.653,28.925a1.378,1.378,0,1,1,0,2.756,1.378,1.378,0,0,1,0-2.756m19.294,2.756H45.474c.749,0,1.174,1.14,1.475,1.892L52.368,47.1v9.386c0,.011,0,.021,0,.031a1.334,1.334,0,0,1-1.383,1.343H4.142a1.348,1.348,0,0,1-1.383-1.375v-9.65A1.348,1.348,0,0,1,4.142,45.46H23.436a1.378,1.378,0,0,0,1.332-1.047l2.77-11.1c.26-1.042.628-1.632,1.409-1.632ZM31.7,34.436a1.377,1.377,0,0,0-1.332,1.028l-2.206,8.269A1.378,1.378,0,0,0,29.5,45.461h6.337v4.13a1.378,1.378,0,0,0,.234.762l2.755,4.139a1.379,1.379,0,0,0,1.138.611h8.269a1.378,1.378,0,0,0,1.383-1.372V48.219a1.373,1.373,0,0,0-.113-.541l-5.226-12.4A1.378,1.378,0,0,0,43,34.437Zm1.057,2.755h3.073v5.514H31.285Zm5.829,0H42.1l4.76,11.3v3.853H40.7l-2.115-3.173V37.192ZM6.868,48.2a1.379,1.379,0,0,0-1.354,1.394V53.73a1.378,1.378,0,0,0,2.755,0V49.591a1.378,1.378,0,0,0-1.4-1.394Zm5.511,0a1.379,1.379,0,0,0-1.353,1.394V53.73a1.379,1.379,0,1,0,2.758,0V49.592a1.378,1.378,0,0,0-1.4-1.394m5.514,0a1.379,1.379,0,0,0-1.354,1.394V53.73a1.378,1.378,0,0,0,2.755,0V49.592a1.378,1.378,0,0,0-1.4-1.394m52.386,4.149A9.647,9.647,0,1,1,60.627,62a9.628,9.628,0,0,1,9.652-9.652m5.492,8.248A1.377,1.377,0,0,0,74.406,62a4.1,4.1,0,0,1-4.128,4.128,1.379,1.379,0,0,0,0,2.758A6.905,6.905,0,0,0,77.165,62a1.378,1.378,0,0,0-1.394-1.4Zm-64.745.021h31.69v2.756H38.588a1.378,1.378,0,0,0,0,2.755H44.1a6.891,6.891,0,0,1,0,13.783H11.025a6.891,6.891,0,0,1,0-13.783H33.074a1.378,1.378,0,1,0,0-2.755H11.025Zm2.769,8.269a4.133,4.133,0,1,0,4.128,4.128,4.157,4.157,0,0,0-4.128-4.128m13.769,0A4.133,4.133,0,1,0,31.7,73.013a4.145,4.145,0,0,0-4.139-4.128m13.78,0a4.133,4.133,0,1,0,4.13,4.128,4.145,4.145,0,0,0-4.13-4.128M13.794,71.64a1.378,1.378,0,0,1,0,2.755,1.378,1.378,0,1,1,0-2.755m13.769,0a1.378,1.378,0,1,1-1.372,1.372,1.358,1.358,0,0,1,1.372-1.372m13.78,0a1.378,1.378,0,0,1,0,2.755,1.378,1.378,0,1,1,0-2.755" transform="translate(-0.001 -0.001)" fill="#34bc85"/>
      </g>
    </g>
    <rect id="Rect치ngulo_341120" data-name="Rect치ngulo 341120" width="85" height="85" transform="translate(180 11739)" fill="none"/>
  </g>
</svg>
