<svg xmlns="http://www.w3.org/2000/svg" width="190" height="153.791" viewBox="0 0 190 153.791">
  <g id="_1" data-name="1" transform="translate(-180 -398.424)">
    <rect id="Rectángulo_340114" data-name="Rectángulo 340114" width="190" height="135" transform="translate(180 417.215)" fill="#feb12e"/>
    <g id="nuclear" transform="translate(234.842 398.424)">
      <path id="Trazado_726595" data-name="Trazado 726595" d="M28.523,65l3.632,51.988a3.432,3.432,0,0,0,3.421,3.157h.7l2.344,23.384a3.432,3.432,0,0,0,3.421,3.157H82.265a3.433,3.433,0,0,0,3.421-3.157l2.344-23.384h.7a3.433,3.433,0,0,0,3.421-3.157L95.786,65Zm0,0" transform="translate(-21.997 -50.127)" fill="#34bc85"/>
      <path id="Trazado_726596" data-name="Trazado 726596" d="M101.4,82.5a1.716,1.716,0,0,0-1.711,1.578l-2.884,42.7c-.138,0-53.57,0-53.708.006l.138,1.71.161,1.99a3.431,3.431,0,0,0,3.415,3.157H92.471l-2.137,19.678c-.138,0-40.634,0-40.771.007.282,3.5.085,5.131,1.828,6.286l.759,9.427a3.431,3.431,0,0,0,3.421,3.157H91.212a3.432,3.432,0,0,0,3.421-3.157l.759-9.427a3.449,3.449,0,0,0,1.529-2.586l2.435-23.384h.613a3.433,3.433,0,0,0,3.421-3.157L106.7,82.5C106.561,82.493,101.536,82.5,101.4,82.5Zm0,0" transform="translate(-33.233 -63.62)" fill="#70ddb1"/>
      <path id="Trazado_726597" data-name="Trazado 726597" d="M106.122,444.5a6.864,6.864,0,1,0,6.864,6.864A6.872,6.872,0,0,0,106.122,444.5Zm0,0" transform="translate(-76.547 -342.793)" fill="#4d5967"/>
      <path id="Trazado_726598" data-name="Trazado 726598" d="M198.622,444.5a6.864,6.864,0,1,0,6.864,6.864A6.872,6.872,0,0,0,198.622,444.5Zm0,0" transform="translate(-147.881 -342.793)" fill="#4d5967"/>
      <path id="Trazado_726599" data-name="Trazado 726599" d="M80.951,19.513h-.459V14.364A6.864,6.864,0,0,0,73.628,7.5H18.714a6.864,6.864,0,0,0-6.864,6.864v5.148h-.917A3.432,3.432,0,0,0,7.5,22.945v5.148a3.432,3.432,0,0,0,3.432,3.432H80.951a3.432,3.432,0,0,0,3.432-3.432V22.945A3.432,3.432,0,0,0,80.951,19.513Zm0,0" transform="translate(-5.784 -5.784)" fill="#6c7a88"/>
      <path id="Trazado_726600" data-name="Trazado 726600" d="M80.951,19.513h-.459V14.364A6.864,6.864,0,0,0,73.628,7.5v5.148H12.066a6.876,6.876,0,0,0-.216,1.716v5.148h65.67v5.148H7.5v3.432a3.432,3.432,0,0,0,3.432,3.432H80.951a3.432,3.432,0,0,0,3.432-3.432V22.945A3.432,3.432,0,0,0,80.951,19.513Zm0,0" transform="translate(-5.784 -5.784)" fill="#4d5967"/>
      <path id="Trazado_726601" data-name="Trazado 726601" d="M125.19,468.716A1.716,1.716,0,1,1,123.474,467,1.717,1.717,0,0,1,125.19,468.716Zm0,0" transform="translate(-93.898 -360.145)"/>
      <path id="Trazado_726602" data-name="Trazado 726602" d="M217.69,468.716A1.716,1.716,0,1,1,215.974,467,1.717,1.717,0,0,1,217.69,468.716Zm0,0" transform="translate(-165.233 -360.145)"/>
      <path id="Trazado_726603" data-name="Trazado 726603" d="M76.425,12.168V8.58A8.59,8.59,0,0,0,67.844,0H12.93a8.59,8.59,0,0,0-8.58,8.58v3.494A5.157,5.157,0,0,0,0,17.161v5.148a5.154,5.154,0,0,0,5.148,5.148h.669L8.448,67A5.183,5.183,0,0,0,12.6,71.638l2.315,21.9a5.114,5.114,0,0,0,1.589,3.32l.7,8.692a5.175,5.175,0,0,0,5.131,4.735h.375a1.716,1.716,0,0,0,1.716-1.716A5.154,5.154,0,1,1,26.8,112.9a1.716,1.716,0,1,0-1.86,2.885,8.532,8.532,0,0,0,4.636,1.364h0a8.588,8.588,0,0,0,8.407-6.864h5.894a1.716,1.716,0,0,0,1.716-1.716,5.154,5.154,0,1,1,2.369,4.331,1.717,1.717,0,0,0-2.608,1.805,1.7,1.7,0,0,0,.748,1.08,8.53,8.53,0,0,0,4.633,1.364h.005a8.585,8.585,0,0,0,8.435-7.013,5.179,5.179,0,0,0,3.935-4.587l.7-8.692a5.117,5.117,0,0,0,1.588-3.32l2.315-21.9A5.183,5.183,0,0,0,71.867,67L74.5,27.457h.669a5.154,5.154,0,0,0,5.148-5.148V17.161A5.157,5.157,0,0,0,76.425,12.168ZM68.447,66.723A1.726,1.726,0,0,1,66.736,68.3H51.6a1.716,1.716,0,1,0,0,3.432H64.264L61.978,93.264a1.708,1.708,0,0,1-.765,1.291l0,0a1.71,1.71,0,0,1-.942.285H43.589a1.716,1.716,0,1,0,0,3.432H60.253l-.564,7a1.717,1.717,0,0,1-.629,1.191,8.582,8.582,0,0,0-16.728.387H37.984a8.582,8.582,0,0,0-16.728-.387,1.717,1.717,0,0,1-.629-1.191l-.564-7H36.726a1.716,1.716,0,1,0,0-3.432H20.049a1.723,1.723,0,0,1-1.711-1.578L16.053,71.733H28.718a1.716,1.716,0,1,0,0-3.432H13.58a1.726,1.726,0,0,1-1.712-1.578L9.261,27.457H71.054Zm8.437-44.414a1.718,1.718,0,0,1-1.716,1.716H5.148a1.718,1.718,0,0,1-1.716-1.716V17.161a1.718,1.718,0,0,1,1.716-1.716H67.96a1.716,1.716,0,1,0,0-3.432H7.781V8.58A5.154,5.154,0,0,1,12.93,3.432H67.844A5.154,5.154,0,0,1,72.993,8.58v5.148a1.715,1.715,0,0,0,1.716,1.716h.459a1.718,1.718,0,0,1,1.716,1.716Zm0,0"/>
      <path id="Trazado_726604" data-name="Trazado 726604" d="M96.713,163.927a1.717,1.717,0,0,0,1.12-2.153,5.732,5.732,0,0,1,4.922-7.436,10,10,0,0,0,5.39,8.763,5.719,5.719,0,0,1-6.577,2.407,1.716,1.716,0,1,0-1.033,3.273,9.157,9.157,0,0,0,10.961-4.634,9.738,9.738,0,0,0,2.509,0,9.148,9.148,0,0,0,10.956,4.635,1.716,1.716,0,1,0-1.033-3.273,5.718,5.718,0,0,1-6.577-2.407,10,10,0,0,0,5.39-8.764,5.732,5.732,0,0,1,4.922,7.436,1.716,1.716,0,0,0,3.273,1.033,9.163,9.163,0,0,0-8.773-11.927,10.013,10.013,0,0,0-1.572-2.832,9.156,9.156,0,0,0-3.618-12.869,1.716,1.716,0,0,0-1.584,3.044,5.725,5.725,0,0,1,2.566,7.482,9.968,9.968,0,0,0-10.412,0,5.724,5.724,0,0,1,2.565-7.482,1.716,1.716,0,0,0-1.584-3.044,9.157,9.157,0,0,0-3.617,12.87,9.969,9.969,0,0,0-1.573,2.832H103.3a9.163,9.163,0,0,0-8.737,11.927A1.716,1.716,0,0,0,96.713,163.927Zm22.533-8.8a6.561,6.561,0,0,1-2.762,4.495A5.723,5.723,0,0,1,119.246,155.127Zm-3.69-6.823a5.711,5.711,0,0,1-5.617,0A6.549,6.549,0,0,1,115.555,148.3Zm-8.3,2.34a9.142,9.142,0,0,0,10.978,0,6.461,6.461,0,0,1,.5.911,9.162,9.162,0,0,0-5.667,9.232,6.1,6.1,0,0,1-.639,0,9.157,9.157,0,0,0-5.67-9.232A6.552,6.552,0,0,1,107.257,150.644Zm1.752,8.978a6.564,6.564,0,0,1-2.762-4.495A5.723,5.723,0,0,1,109.009,159.622Zm0,0" transform="translate(-72.589 -104.098)"/>
    </g>
  </g>
</svg>
