<svg xmlns="http://www.w3.org/2000/svg" width="190" height="135" viewBox="0 0 190 135">
  <g id="_1" data-name="1" transform="translate(-180 -1636.43)">
    <rect id="Rect치ngulo_340114" data-name="Rect치ngulo 340114" width="190" height="135" transform="translate(180 1636.43)" fill="#e2eacb"/>
    <g id="Grupo_958018" data-name="Grupo 958018" transform="translate(-98 -191.652)">
      <rect id="Rect치ngulo_341138" data-name="Rect치ngulo 341138" width="96" height="96" transform="translate(325.168 1847.652)" fill="none"/>
      <g id="Grupo_957610" data-name="Grupo 957610" transform="translate(328.847 1848)">
        <g id="Grupo_957609" data-name="Grupo 957609">
          <g id="Grupo_957601" data-name="Grupo 957601" transform="translate(1.399 1.401)">
            <path id="Trazado_725127" data-name="Trazado 725127" d="M211.132,377.869h18.589v-9.818a4.643,4.643,0,0,0-7.338-3.6l-5.483,3.919H211.13v9.5h0Z" transform="translate(-173.086 -297.058)" fill="#fed2a4"/>
            <path id="Trazado_725128" data-name="Trazado 725128" d="M134.366,357.243a4.643,4.643,0,0,0-6.477-1.08l-16.674,11.917a6.345,6.345,0,0,1-.615.383v.006l-2.04,1.616-3.372-.062v-.788s.8-.362.807-.362a4.625,4.625,0,0,0-1.715-8.928H99.414a9.417,9.417,0,0,1-5.244-1.584,8.946,8.946,0,0,0-11.024.839l-.986.9a5.284,5.284,0,0,1-3.57,1.388H77.04v18.583h27.42a18.56,18.56,0,0,0,10.795-3.462l18.034-12.889a4.647,4.647,0,0,0,1.08-6.481Z" transform="translate(-64.047 -290.322)" fill="#ffe5c2"/>
            <path id="Trazado_725129" data-name="Trazado 725129" d="M7.49,395.1a1.548,1.548,0,0,0,1.547,1.549h9.9a1.548,1.548,0,0,0,1.547-1.549v-21.68a1.548,1.548,0,0,0-1.547-1.549h-9.9a1.547,1.547,0,0,0-1.547,1.549Z" transform="translate(-7.49 -303.798)" fill="#c8effe"/>
            <path id="Trazado_725130" data-name="Trazado 725130" d="M336.872,357.243a4.643,4.643,0,0,0-6.477-1.08l-4.325,3.1a4.645,4.645,0,0,1,5.552,7.445l4.17-2.982A4.649,4.649,0,0,0,336.872,357.243Z" transform="translate(-266.553 -290.322)" fill="#fed2a4"/>
            <path id="Trazado_725131" data-name="Trazado 725131" d="M54.935,371.88H50.61a1.548,1.548,0,0,1,1.547,1.549v21.681a1.548,1.548,0,0,1-1.547,1.549h4.325a1.548,1.548,0,0,0,1.547-1.549V373.429A1.548,1.548,0,0,0,54.935,371.88Z" transform="translate(-42.554 -303.806)" fill="#99e6fc"/>
            <g id="Grupo_957600" data-name="Grupo 957600" transform="translate(24.789)">
              <g id="Grupo_957599" data-name="Grupo 957599" transform="translate(3.053)">
                <path id="Trazado_725132" data-name="Trazado 725132" d="M226.335,61.8a27.9,27.9,0,0,0,8.54-12.2l-3.983-26a27.9,27.9,0,0,0-14.38-10l-18.088.779a27.9,27.9,0,0,0-10.578,7.364h0L186.32,57.027a27.983,27.983,0,0,0,9.705,8.144l30.31-3.374Z" transform="translate(-180.753 -12.46)" fill="#01d0fb"/>
                <path id="Trazado_725133" data-name="Trazado 725133" d="M347.054,40.324A27.813,27.813,0,0,1,336.23,62.367l5.022-.559a27.9,27.9,0,0,0,8.54-12.2l-3.981-26a27.9,27.9,0,0,0-14.38-10l-3.791.164a27.866,27.866,0,0,1,19.414,26.551Z" transform="translate(-295.671 -12.469)" fill="#01c0fa"/>
                <path id="Trazado_725134" data-name="Trazado 725134" d="M169.517,85.055v-.876a2.838,2.838,0,0,1,2.838-2.838A7.426,7.426,0,0,0,179,77.235l.876-1.754a7.429,7.429,0,0,0,.785-3.322V67.2a4.432,4.432,0,0,0-4.433-4.433h-1.655a4.434,4.434,0,0,1-4.205-3.032,3.713,3.713,0,0,0-3.523-2.539h-3.226a27.855,27.855,0,0,0-1.526,35.283h0A7.428,7.428,0,0,0,169.517,85.055Z" transform="translate(-156.52 -47.915)" fill="#9be69d"/>
                <path id="Trazado_725135" data-name="Trazado 725135" d="M355.818,86.945l-1.573-14.5-6.427-5.306h-4.084a7.427,7.427,0,0,0-6.643,4.106L336.215,73a7.43,7.43,0,0,0-.785,3.322V79.7a3.713,3.713,0,0,0,2.053,3.322l3.807,1.9a7.43,7.43,0,0,0,3.322.785h1.96a1.857,1.857,0,0,1,1.857,1.857v1.857a3.713,3.713,0,0,0,3.38,3.7l4.009-6.176Z" transform="translate(-302.006 -55.998)" fill="#9be69d"/>
                <path id="Trazado_725136" data-name="Trazado 725136" d="M407.311,83.853a27.787,27.787,0,0,1-1.581,9.268c.11.009.22.017.334.017h3.983a27.888,27.888,0,0,0-3.981-26H401.74a27.729,27.729,0,0,1,5.571,16.713Z" transform="translate(-355.928 -55.998)" fill="#6fd7a3"/>
                <path id="Trazado_725137" data-name="Trazado 725137" d="M265.932,8.455l-5-.525h-1.784a27.779,27.779,0,0,0-8.035,1.84l.7,1.4a7.427,7.427,0,0,0,6.643,4.106h4.564a3.713,3.713,0,0,0,3.09-1.653l2.234-3.352-2.41-1.818Z" transform="translate(-233.439 -7.85)" fill="#9be69d"/>
                <path id="Trazado_725138" data-name="Trazado 725138" d="M294.032,7.582a27.652,27.652,0,0,1,9.212,2.341L304.1,8.64h0a27.893,27.893,0,0,0-7.906-1.14q-1.093,0-2.163.082Z" transform="translate(-268.34 -7.5)" fill="#6fd7a3"/>
                <path id="Trazado_725139" data-name="Trazado 725139" d="M250.053,249.03l5.126-.611,9.718-4.3,1.956-3.8h0l-.773-1.084a7.425,7.425,0,0,0-6.044-3.111h-4.555a8.635,8.635,0,0,0-7.185,3.845h0a3.878,3.878,0,0,1-3.225,1.726h0a7.426,7.426,0,0,0-6.793,4.43,27.661,27.661,0,0,0,10.453,2.914l1.323-.015Z" transform="translate(-223.006 -193.417)" fill="#9be69d"/>
                <path id="Trazado_725140" data-name="Trazado 725140" d="M312.2,258.57a27.778,27.778,0,0,1-18.157,8.721q1.071.081,2.163.082a27.739,27.739,0,0,0,17.714-6.358l.017-.013h0Z" transform="translate(-268.348 -211.665)" fill="#6fd7a3"/>
              </g>
              <path id="Trazado_725141" data-name="Trazado 725141" d="M168.133,169.176a30.909,30.909,0,0,0-24.9-12.566c-.531,0-1.056.013-1.579.039a1.552,1.552,0,0,0-1.47,1.633,30.954,30.954,0,0,0,30.911,29.277c.347,0,.691-.007,1.035-.019Z" transform="translate(-140.178 -128.753)" fill="#6fd7a3"/>
              <path id="Trazado_725142" data-name="Trazado 725142" d="M269.538,223.83a31.091,31.091,0,0,0,3.934.249c.348,0,.691-.007,1.035-.019L270.513,205.7a31.079,31.079,0,0,0-3.718-4.175,35.31,35.31,0,0,0,2.743,22.312Z" transform="translate(-242.559 -165.273)" fill="#3ec3a4"/>
              <path id="Trazado_725143" data-name="Trazado 725143" d="M289.072,105a30.806,30.806,0,0,0,4.131,15.456A30.955,30.955,0,0,0,319.471,74.93a1.548,1.548,0,0,0-1.463-.815A30.953,30.953,0,0,0,289.07,105Z" transform="translate(-261.254 -61.668)" fill="#6fd7a3"/>
              <path id="Trazado_725144" data-name="Trazado 725144" d="M336.485,74.93a1.548,1.548,0,0,0-1.463-.815,30.887,30.887,0,0,0-3.189.374,1.527,1.527,0,0,1,.359.441,30.957,30.957,0,0,1-22.2,45.121c.075.135.148.271.224.4A30.958,30.958,0,0,0,336.485,74.93Z" transform="translate(-278.266 -61.668)" fill="#3ec3a4"/>
            </g>
          </g>
          <g id="Grupo_957608" data-name="Grupo 957608" transform="translate(0 0)">
            <g id="Grupo_957603" data-name="Grupo 957603" transform="translate(0 64.975)">
              <path id="Trazado_725145" data-name="Trazado 725145" d="M13.78,391.958H2.948A2.952,2.952,0,0,1,0,389.009V376.62a1.4,1.4,0,1,1,2.8,0v12.388a.147.147,0,0,0,.146.148H13.78a.147.147,0,0,0,.146-.148V367.33a.147.147,0,0,0-.146-.148H2.948a.145.145,0,0,0-.146.148v2.744a1.4,1.4,0,0,1-2.8,0V367.33a2.952,2.952,0,0,1,2.948-2.95H13.78a2.952,2.952,0,0,1,2.948,2.95v21.679A2.952,2.952,0,0,1,13.78,391.958Z" transform="translate(0 -361.281)"/>
              <g id="Grupo_957602" data-name="Grupo 957602" transform="translate(13.927)">
                <path id="Trazado_725146" data-name="Trazado 725146" d="M235.922,363.679a1.4,1.4,0,0,1-.816-2.541l5.483-3.918a6.043,6.043,0,0,1,9.551,4.693,1.4,1.4,0,1,1-2.8.1,3.24,3.24,0,0,0-5.122-2.514l-5.483,3.918A1.4,1.4,0,0,1,235.922,363.679Z" transform="translate(-204.634 -354.542)"/>
                <path id="Trazado_725147" data-name="Trazado 725147" d="M102.437,375.372H75.951a1.4,1.4,0,1,1,0-2.8h26.486a17.056,17.056,0,0,0,9.978-3.2l18.032-12.889a3.244,3.244,0,0,0-1.351-5.84,3.215,3.215,0,0,0-2.415.559l-16.674,11.918a7.543,7.543,0,0,1-4.413,1.416h-3.337a1.4,1.4,0,1,1,0-2.8h3.337a4.757,4.757,0,0,0,2.783-.893l16.674-11.918a6.045,6.045,0,0,1,7.025,9.841l-18.032,12.889A19.842,19.842,0,0,1,102.437,375.372Z" transform="translate(-74.55 -347.792)"/>
              </g>
              <path id="Trazado_725148" data-name="Trazado 725148" d="M102.161,371.272h-9.18a1.4,1.4,0,0,1,0-2.8h9.18a3.41,3.41,0,0,0,2.417-1.022,3.162,3.162,0,0,0,.927-2.286,3.259,3.259,0,0,0-3.24-3.183H97.4a10.836,10.836,0,0,1-6.035-1.829,7.543,7.543,0,0,0-9.284.715l-.987.9a6.662,6.662,0,0,1-4.515,1.756h-.617a1.4,1.4,0,1,1,0-2.8h.617A3.867,3.867,0,0,0,79.2,359.7l.987-.9a10.346,10.346,0,0,1,12.734-.981,8.043,8.043,0,0,0,4.48,1.358h4.867a6.076,6.076,0,0,1,6.042,5.931,5.943,5.943,0,0,1-1.728,4.3A6.229,6.229,0,0,1,102.161,371.272Z" transform="translate(-60.631 -354.532)"/>
            </g>
            <g id="Grupo_957607" data-name="Grupo 957607" transform="translate(24.804)">
              <g id="Grupo_957605" data-name="Grupo 957605" transform="translate(3.05)">
                <path id="Trazado_725149" data-name="Trazado 725149" d="M168.479,17.38a1.4,1.4,0,0,1-1.23-2.07,29.267,29.267,0,0,1,50.279-1.968,1.4,1.4,0,0,1-2.35,1.527,26.464,26.464,0,0,0-45.467,1.779A1.4,1.4,0,0,1,168.479,17.38Z" transform="translate(-163.718 0)"/>
                <path id="Trazado_725150" data-name="Trazado 725150" d="M150.491,121.6a1.4,1.4,0,0,1-1.4-1.4,29.394,29.394,0,0,1,.92-7.31,1.4,1.4,0,1,1,2.714.7,26.589,26.589,0,0,0-.832,6.612A1.4,1.4,0,0,1,150.491,121.6Z" transform="translate(-149.09 -90.944)"/>
                <g id="Grupo_957604" data-name="Grupo 957604" transform="translate(7.097 1.139)">
                  <path id="Trazado_725151" data-name="Trazado 725151" d="M257,15.19h-4.564a8.779,8.779,0,0,1-7.9-4.881l-.7-1.4a1.4,1.4,0,0,1,2.506-1.253l.7,1.4a5.992,5.992,0,0,0,5.39,3.332H257a2.309,2.309,0,0,0,1.924-1.03l3.09-4.635a1.4,1.4,0,0,1,2.332,1.554l-3.09,4.635A5.106,5.106,0,0,1,257,15.19Z" transform="translate(-233.113 -6.099)"/>
                  <path id="Trazado_725152" data-name="Trazado 725152" d="M198.839,76.464a1.4,1.4,0,0,1-.3-2.769,6.006,6.006,0,0,0,4.076-3.187l.875-1.753a6.058,6.058,0,0,0,.637-2.7V61.105a3.036,3.036,0,0,0-3.032-3.032h-1.655a5.827,5.827,0,0,1-5.535-3.99,2.311,2.311,0,0,0-2.194-1.581h-3.226a1.4,1.4,0,0,1,0-2.8h3.226a5.11,5.11,0,0,1,4.853,3.5,3.028,3.028,0,0,0,2.876,2.075h1.655a5.841,5.841,0,0,1,5.834,5.834V66.06a8.874,8.874,0,0,1-.933,3.948l-.876,1.754a8.8,8.8,0,0,1-5.972,4.668A1.407,1.407,0,0,1,198.839,76.464Z" transform="translate(-187.08 -41.554)"/>
                  <path id="Trazado_725153" data-name="Trazado 725153" d="M329.411,73.155a1.4,1.4,0,0,1-1.4-1.4v-1.53a8.874,8.874,0,0,1,.933-3.948l.876-1.754a8.779,8.779,0,0,1,7.9-4.881h8.409a1.4,1.4,0,0,1,0,2.8h-8.409a5.992,5.992,0,0,0-5.39,3.331l-.876,1.754a6.059,6.059,0,0,0-.637,2.7v1.53A1.4,1.4,0,0,1,329.411,73.155Z" transform="translate(-301.681 -49.637)"/>
                </g>
              </g>
              <g id="Grupo_957606" data-name="Grupo 957606" transform="translate(0 12.445)">
                <path id="Trazado_725154" data-name="Trazado 725154" d="M287.152,115.755a1.4,1.4,0,0,1-1.213-.7,32.356,32.356,0,0,1,25.924-48.436l.19-.006a2.943,2.943,0,0,1,2.6,1.558A32.358,32.358,0,0,1,287.2,115.755ZM312.18,69.493a29.482,29.482,0,0,0-24.228,43.421A29.556,29.556,0,0,0,312.18,69.493Z" transform="translate(-253.811 -66.613)"/>
                <path id="Trazado_725155" data-name="Trazado 725155" d="M205.526,221.757a1.4,1.4,0,0,1-.631-.151c-6.491-3.282-18.051-10.356-22.553-20.864a1.4,1.4,0,1,1,2.576-1.1c4.307,10.055,16.29,16.963,21.242,19.467a1.4,1.4,0,0,1-.633,2.652Z" transform="translate(-172.988 -174.095)"/>
                <path id="Trazado_725156" data-name="Trazado 725156" d="M305.138,162.624a1.4,1.4,0,0,1-.718-2.606c.159-.095,15.913-9.76,18.4-34.508a1.4,1.4,0,1,1,2.788.281c-2.639,26.228-19.065,36.226-19.763,36.638A1.393,1.393,0,0,1,305.138,162.624Z" transform="translate(-271.796 -113.482)"/>
                <path id="Trazado_725157" data-name="Trazado 725157" d="M165.072,182.851a32.332,32.332,0,0,1-32.3-30.6,2.95,2.95,0,0,1,2.8-3.107q.82-.041,1.649-.041a32.5,32.5,0,0,1,26.022,13.134,1.4,1.4,0,1,1-2.253,1.666,29.685,29.685,0,0,0-23.769-12q-.758,0-1.509.037l-.139.159a29.53,29.53,0,0,0,29.5,27.95c.332,0,.661-.007.989-.018a1.4,1.4,0,1,1,.091,2.8C165.794,182.843,165.435,182.851,165.072,182.851Z" transform="translate(-132.767 -133.69)"/>
              </g>
            </g>
          </g>
        </g>
      </g>
    </g>
  </g>
</svg>
