<svg xmlns="http://www.w3.org/2000/svg" xmlns:xlink="http://www.w3.org/1999/xlink" width="610" height="467" viewBox="0 0 610 467">
  <defs>
    <clipPath id="clip-path">
      <rect id="Rect치ngulo_341369" data-name="Rect치ngulo 341369" width="610" height="467" transform="translate(810 3444)" fill="none" stroke="#707070" stroke-width="1"/>
    </clipPath>
    <clipPath id="clip-path-2">
      <rect id="Rect치ngulo_341251" data-name="Rect치ngulo 341251" width="408.232" height="411.898" fill="none"/>
    </clipPath>
  </defs>
  <g id="_12" data-name="12" transform="translate(-810 -3444)" clip-path="url(#clip-path)">
    <g id="Grupo_958175" data-name="Grupo 958175" transform="translate(915 3475.051)">
      <g id="Grupo_958174" data-name="Grupo 958174" clip-path="url(#clip-path-2)">
        <path id="Trazado_726314" data-name="Trazado 726314" d="M210.066,390.838c-107.518,0-194.99-87.472-194.99-194.99S102.548.857,210.066.857,405.057,88.33,405.057,195.848s-87.472,194.99-194.991,194.99m0-388.071c-106.464,0-193.08,86.615-193.08,193.081s86.616,193.08,193.08,193.08,193.08-86.615,193.08-193.08S316.531,2.767,210.066,2.767" fill="#ffe875"/>
        <path id="Trazado_726315" data-name="Trazado 726315" d="M204.117,397.273c106.871,0,194.033-87.164,194.033-194.036S310.988,9.2,204.117,9.2,10.08,96.366,10.08,203.237,97.246,397.273,204.117,397.273" fill="#ffe875" fill-rule="evenodd"/>
        <path id="Trazado_726316" data-name="Trazado 726316" d="M64.034,5.748V2.191a2.191,2.191,0,1,0-4.382,0V5.748a2.191,2.191,0,1,0,4.382,0" fill="#fccb37" fill-rule="evenodd"/>
        <path id="Trazado_726317" data-name="Trazado 726317" d="M49.12,5.748V2.191a2.191,2.191,0,1,0-4.381,0V5.748a2.191,2.191,0,1,0,4.381,0" fill="#fccb37" fill-rule="evenodd"/>
        <path id="Trazado_726318" data-name="Trazado 726318" d="M34.208,5.748V2.191a2.191,2.191,0,0,0-4.383,0V5.748a2.191,2.191,0,1,0,4.383,0" fill="#fccb37" fill-rule="evenodd"/>
        <path id="Trazado_726319" data-name="Trazado 726319" d="M19.3,5.748V2.191a2.191,2.191,0,1,0-4.382,0V5.748a2.191,2.191,0,1,0,4.382,0" fill="#9fcf30" fill-rule="evenodd"/>
        <path id="Trazado_726320" data-name="Trazado 726320" d="M4.381,5.748V2.191A2.191,2.191,0,1,0,0,2.191V5.748a2.191,2.191,0,1,0,4.381,0" fill="#fccb37" fill-rule="evenodd"/>
        <path id="Trazado_726321" data-name="Trazado 726321" d="M406.042,342.44h-3.559a2.191,2.191,0,1,0,0,4.381h3.559a2.191,2.191,0,0,0,0-4.381" fill="#fccb37" fill-rule="evenodd"/>
        <path id="Trazado_726322" data-name="Trazado 726322" d="M406.042,357.353h-3.559a2.191,2.191,0,1,0,0,4.381h3.559a2.191,2.191,0,0,0,0-4.381" fill="#9fcf30" fill-rule="evenodd"/>
        <path id="Trazado_726323" data-name="Trazado 726323" d="M406.042,372.267h-3.559a2.191,2.191,0,1,0,0,4.381h3.559a2.191,2.191,0,0,0,0-4.381" fill="#fccb37" fill-rule="evenodd"/>
        <path id="Trazado_726324" data-name="Trazado 726324" d="M406.042,387.18h-3.559a2.191,2.191,0,1,0,0,4.381h3.559a2.191,2.191,0,0,0,0-4.381" fill="#fccb37" fill-rule="evenodd"/>
        <path id="Trazado_726325" data-name="Trazado 726325" d="M406.042,402.093h-3.559a2.191,2.191,0,1,0,0,4.382h3.559a2.191,2.191,0,0,0,0-4.382" fill="#fccb37" fill-rule="evenodd"/>
        <path id="Trazado_726326" data-name="Trazado 726326" d="M253.624,74.964a10.926,10.926,0,0,0-3.816.683,2.94,2.94,0,0,0-3.31-.737,4.9,4.9,0,0,0-7.861-3.514,2.843,2.843,0,0,0-.643-.643,5.774,5.774,0,0,0-5.039-8.6h-.017a6.36,6.36,0,0,0-4.81-.445,2.886,2.886,0,0,0-1.28-1.333,10.653,10.653,0,0,0,.234-2.226,10.493,10.493,0,0,0-13.15-10.142,11.363,11.363,0,0,0-11.191,11.361c0,.087,0,.174,0,.263a6.992,6.992,0,0,0-4.97.592,9.1,9.1,0,0,0-16,8.206c-.091-.007-.183-.009-.276-.009a4.484,4.484,0,0,0-4.4,5.332l-.094,0a2.585,2.585,0,0,0-2.583,2.5,6.487,6.487,0,0,0-1.2-.113,6.106,6.106,0,0,0-4.217,1.592c-2.911,2.754.268,3.47,3.33,3.47h84.653c3.192,0,7.754.523,4.585-2.816a10.927,10.927,0,0,0-7.953-3.416M226.015,60.1a2.9,2.9,0,0,0-.488-.041h-.083c.014-.227.021-.458.021-.688A11.368,11.368,0,0,0,217.757,48.6,9.625,9.625,0,0,1,226.015,60.1m11.207,10.256a2.914,2.914,0,0,0-1.41-.115,6.331,6.331,0,0,0-1.373-6.985,4.909,4.909,0,0,1,2.783,7.1" fill="#fff" fill-rule="evenodd"/>
        <path id="Trazado_726327" data-name="Trazado 726327" d="M368.886,212.065a10.96,10.96,0,0,0-3.818.682,2.944,2.944,0,0,0-3.309-.737,4.9,4.9,0,0,0-7.86-3.514,2.931,2.931,0,0,0-.644-.643,5.776,5.776,0,0,0-5.039-8.6H348.2a6.343,6.343,0,0,0-4.81-.443,2.873,2.873,0,0,0-1.281-1.335,10.577,10.577,0,0,0,.236-2.225,10.493,10.493,0,0,0-13.15-10.142A11.365,11.365,0,0,0,318,196.468c0,.087,0,.175.005.262a6.982,6.982,0,0,0-4.968.593,9.1,9.1,0,0,0-16,8.205c-.092-.005-.183-.009-.275-.009A4.482,4.482,0,0,0,292.281,210a4.589,4.589,0,0,0,.081.851l-.094,0a2.583,2.583,0,0,0-2.582,2.5,6.423,6.423,0,0,0-1.2-.113,6.1,6.1,0,0,0-4.216,1.591c-2.911,2.755.267,3.47,3.33,3.47h84.654c3.191,0,7.752.523,4.583-2.816a10.927,10.927,0,0,0-7.951-3.415M341.277,197.2a2.912,2.912,0,0,0-.488-.04h-.083c.012-.228.021-.457.021-.688a11.368,11.368,0,0,0-7.708-10.762,9.633,9.633,0,0,1,8.258,11.489m11.207,10.257a2.876,2.876,0,0,0-.936-.155,2.714,2.714,0,0,0-.474.04,6.346,6.346,0,0,0-1.375-6.986,4.91,4.91,0,0,1,3.424,4.677,4.884,4.884,0,0,1-.639,2.424" fill="#fff" fill-rule="evenodd"/>
        <path id="Trazado_726328" data-name="Trazado 726328" d="M106.878,223.3a10.92,10.92,0,0,0-3.817.683,2.943,2.943,0,0,0-3.311-.736,4.9,4.9,0,0,0-7.859-3.515,2.957,2.957,0,0,0-.644-.644,5.776,5.776,0,0,0-5.039-8.6H86.19a6.338,6.338,0,0,0-4.81-.444,2.868,2.868,0,0,0-1.282-1.334A10.493,10.493,0,0,0,67.185,196.34,11.362,11.362,0,0,0,55.993,207.7c0,.087,0,.174,0,.262a6.99,6.99,0,0,0-4.969.592,9.1,9.1,0,0,0-16,8.206c-.09-.006-.182-.009-.275-.009a4.481,4.481,0,0,0-4.48,4.482,4.407,4.407,0,0,0,.08.85H30.26a2.585,2.585,0,0,0-2.584,2.5,6.387,6.387,0,0,0-1.2-.113,6.1,6.1,0,0,0-4.217,1.592c-2.912,2.753.267,3.47,3.329,3.47h84.654c3.193,0,7.752.523,4.585-2.817a10.932,10.932,0,0,0-7.951-3.416M79.267,208.429a2.8,2.8,0,0,0-.486-.041H78.7c.011-.228.02-.458.02-.688a11.365,11.365,0,0,0-7.708-10.763,9.611,9.611,0,0,1,8.454,9.545,9.687,9.687,0,0,1-.2,1.946m11.208,10.256a2.9,2.9,0,0,0-.937-.155,2.963,2.963,0,0,0-.474.039,6.328,6.328,0,0,0-1.374-6.984,4.91,4.91,0,0,1,2.785,7.1" fill="#fff" fill-rule="evenodd"/>
        <path id="Trazado_726329" data-name="Trazado 726329" d="M325.463,266.971l9.894,17.217s2.036,9.071,4.057,31.514-5.863,39.434-15.973,51.364-29.332,32.786-29.332,32.786-18.389-32.988-19.2-34.808-6.674-18.4-2.629-27.5,17.593-37.41,19.21-43.476,3.238-18.2,8.9-19.816,25.074-7.28,25.074-7.28" fill="#dee9f0" fill-rule="evenodd"/>
        <path id="Trazado_726330" data-name="Trazado 726330" d="M335.356,284.188h0v0h0l0,0v.005l0,.007v.009l0,.009,0,.011,0,.009v0l0,.014,0,.014,0,.016h0l0,.016,0,.019.005.02v.006l0,.015.005.022.005.024,0,.013,0,.01,0,.027.005.028,0,.024,0,0,0,.03.007.031.007.033v0l.008.031.006.036.007.036v.014l.006.025.008.039.008.04.006.026,0,.017.009.044.008.044.008.04v.006l.011.047.009.049.01.05v.008l.008.044.01.052.01.055.006.023.005.033.011.056.013.059.006.04.005.02.011.061.014.063.009.059v.005l.013.064.014.067.013.068,0,.014.01.056.013.071.014.072.006.033.005.04.015.076.014.076.01.056,0,.022.015.079.014.081.015.08v0l.015.083.016.086c-22.517.725-29.664,9.543-30.424,17.551-.812,8.494,5.08,10.656,5.08,10.656-6.129.368-10.576,5.982-10.576,5.982l-20.844,1.632c5.244-11.351,11.331-24.682,12.383-28.623,1.617-6.066,3.237-18.2,8.9-19.817.846-.241,2-.574,3.351-.963,13.66,2.773,31.617,10.9,31.617,10.9" fill="#303e46" fill-rule="evenodd"/>
        <path id="Trazado_726331" data-name="Trazado 726331" d="M146.1,221.068c-2.426.2-24.8,6.371-24.8,6.371L109.5,233s13.749,26.085,13.952,27.1-4.889,26.316-4.889,26.316l27.346-10.5S164.1,249.58,163.69,246.547,146.1,221.068,146.1,221.068" fill="#e3f2ff" fill-rule="evenodd"/>
        <path id="Trazado_726332" data-name="Trazado 726332" d="M146.1,221.068c-2.426.2-24.8,6.371-24.8,6.371l-9.444,4.449,10.457,4.866s21.769,1.539,21.566,37.331c-.006.9.007,1.759.029,2.6l2-.769S164.1,249.58,163.69,246.547,146.1,221.068,146.1,221.068" fill="#0e354e" fill-rule="evenodd"/>
        <path id="Trazado_726333" data-name="Trazado 726333" d="M94.217,171.739c13.55,48.984,24.491,54.362,32.618,75.78,19.841,50.411-38.793,52.237-47.5,12.938-8.289-37.385-16.291-97.871-11.5-110.915Z" fill="#dee9f0" fill-rule="evenodd"/>
        <path id="Trazado_726334" data-name="Trazado 726334" d="M300.541,201.057s13.025,3.687,19.492,20.614,16.37,59.9,16.37,59.9a2.414,2.414,0,0,1-1.047,2.615s-21.21-1.026-38.14,7.343l-12.985-21.263L269.2,218.343Z" fill="#feb12e" fill-rule="evenodd"/>
        <path id="Trazado_726335" data-name="Trazado 726335" d="M184.347,189.175c-8.037,1.213-16.621,4.568-32.156,15.1s-31,20.309-31,20.309a2.439,2.439,0,0,0,.114,2.857s27.083,11.894,24.588,48.4c-.005.075.858,2.082,2.075,1.711,2.258-.685,17.846-7.937,19.868-9.069,22.538-12.616,24.865-47.859,24.865-47.859Z" fill="#feb12e" fill-rule="evenodd"/>
        <path id="Trazado_726336" data-name="Trazado 726336" d="M190.877,322.647l-27.192,27.1a146.49,146.49,0,0,0-7.978,33.8,183.058,183.058,0,0,0,133.188,2.319l-7.616-32.071Z" fill="#12006c" fill-rule="evenodd"/>
        <path id="Trazado_726337" data-name="Trazado 726337" d="M163.25,349.6l-3.008,10.794c12.9,6.362,67.444,30.683,125.965,14.155l-4.928-20.758L232.6,337.021c-11.782-.4-17.654-.639-22.7-.639S170.6,346.944,163.25,349.6" fill="#2c81fe" fill-rule="evenodd"/>
        <path id="Trazado_726338" data-name="Trazado 726338" d="M221.145,159.763s-.687,3.37-1.273,6.274-.5,11.827-.5,11.827c-.451,2.423-.9,8.38-4.418,8.257-5.977-.21,3.7,20.673,11.708,22.919,9.255,2.6,28.679-8.1,39.317-14.426,1.339-.795.024-4.487,1.14-5,0,0-5.112-1.945-5.6-6.681s1.326-21.9,1.326-21.9Z" fill="#dee9f0" fill-rule="evenodd"/>
        <path id="Trazado_726339" data-name="Trazado 726339" d="M221.145,159.763s-.687,3.37-1.273,6.274-.5,11.827-.5,11.827c-.2,1.038-.386,2.726-.822,4.305,3.8,3.31,7.973,6.776,10.179,8.023a21.64,21.64,0,0,0,19.4,0c2.845-1.608,8.976-6.912,13.329-10.808.168-6.761,1.391-18.355,1.391-18.355Z" fill="#98d5fc" fill-rule="evenodd"/>
        <path id="Trazado_726340" data-name="Trazado 726340" d="M267.116,189.612l33.425,11.445s-27.534,37.559-5.682,79.791l-13.88,52.647s4.174,5.044.828,10.6l3.982,18.091c2.764,12.556-131.17,8.839-125.7-11.524,1.059-3.941,2.534-9.822,2.983-10.866a8.461,8.461,0,0,1,1.448-7.1l.245-39.623s-.793-38.85-.36-43.2c1.574-18.652,19.945-60.692,19.945-60.692l30.606-3.053c1.323,17.159,28.369,19.213,52.164,3.491" fill="#feb12e" fill-rule="evenodd"/>
        <path id="Trazado_726341" data-name="Trazado 726341" d="M211.334,396.8a.48.48,0,0,1-.478-.471c-.138-8.753.914-22.046,1.907-24.107a.478.478,0,0,1,.861.414c-.854,1.774-1.956,14.552-1.812,23.679a.479.479,0,0,1-.471.485Zm-9.31-.862a.447.447,0,0,1-.478-.479,214.858,214.858,0,0,1,1.545-23.091.471.471,0,0,1,.534-.413.478.478,0,0,1,.414.535,213.981,213.981,0,0,0-1.538,22.971.477.477,0,0,1-.477.477m76.971-12.919c-19.119,0-28.5-8.768-28.609-8.869a.478.478,0,1,1,.661-.69c.12.113,12.137,11.3,36.851,7.992a.478.478,0,1,1,.127.948,68.014,68.014,0,0,1-9.03.619M160.014,374.4a23.031,23.031,0,0,1-3.073-.206.478.478,0,0,1,.126-.948c11.944,1.6,19.715-7.019,19.792-7.107a.478.478,0,0,1,.716.632c-.074.083-6.868,7.629-17.561,7.629" fill="#2c81fe"/>
        <path id="Trazado_726342" data-name="Trazado 726342" d="M243.836,348.3q-4.893,0-10.421-.2a.478.478,0,0,1-.461-.5.487.487,0,0,1,.494-.459c32.289,1.2,48.064-3.459,48.22-3.506a.478.478,0,0,1,.277.914c-.138.042-12.655,3.744-38.109,3.744m42.694-97.232a.477.477,0,0,1-.478-.453,78.732,78.732,0,0,1,3.02-25.72l-.567-.829a.478.478,0,0,1,.789-.539l.124.181q.474-1.583,1.017-3.164a.477.477,0,0,1,.9.309q-.691,2.026-1.274,4.054a.615.615,0,0,1-.023.073,77.881,77.881,0,0,0-3.035,25.585.476.476,0,0,1-.45.5ZM168.859,230.752a.47.47,0,0,1-.142-.021.479.479,0,0,1-.315-.6c1.617-5.246,3.645-11.145,6.043-17.58l-.5-1.389a.477.477,0,1,1,.9-.322l.116.324q.459-1.218.934-2.46a.478.478,0,1,1,.893.342q-.71,1.858-1.385,3.661a.2.2,0,0,1-.009.029c-2.416,6.475-4.455,12.407-6.079,17.677a.48.48,0,0,1-.457.336m65.789-23.085a34.879,34.879,0,0,1-12.812-2.17c-7.936-3.171-12.186-9.5-12.288-18.313a.477.477,0,0,1,.472-.483.483.483,0,0,1,.482.473c.1,8.391,4.139,14.42,11.69,17.436,14.3,5.71,39.236-.62,51.3-13.03a.477.477,0,1,1,.683.666c-9.177,9.439-25.676,15.421-39.53,15.421" fill="#2c81fe"/>
        <path id="Trazado_726343" data-name="Trazado 726343" d="M293.161,124.936s4.445,10.273,6.656,15.691,1.048,11.711-5.552,15.233-17.9,3.573-26.477-.137c-6.763-2.927,9.467-26.508,18.087-33.757,2.31-1.943,7.286,2.97,7.286,2.97" fill="#fccb37" fill-rule="evenodd"/>
        <path id="Trazado_726344" data-name="Trazado 726344" d="M284.013,135.723s5.2-3.548,7.864-2.576,4.466,8.071,2.878,12.683S283.8,165.475,276.4,156.955s7.613-21.232,7.613-21.232" fill-rule="evenodd"/>
        <path id="Trazado_726345" data-name="Trazado 726345" d="M279.661,139.9a1.155,1.155,0,0,0-.515,1.183.547.547,0,0,0,.794.362h0s-1.284,15.122,1.316,13.378,5.275-3.375,7.07-6.833-.417-7.622.937-8.3c1.294-.645,2.062,1.076,2.131,1.239v.006l0,0v0a10.219,10.219,0,0,1,.616,3.049.557.557,0,0,0,.769.562,1.161,1.161,0,0,0,.712-1.082c0-.016-.144-5.919-3.989-6.712-3.67-.756-9.823,3.128-9.843,3.138" fill="#dee9f0" fill-rule="evenodd"/>
        <path id="Trazado_726346" data-name="Trazado 726346" d="M205.337,120.085s-2.331-4.315-4.522-4.6-5.976,3.991-6.528,7.752.56,17.515,8.73,14.263,2.32-17.42,2.32-17.42" fill="#171717" fill-rule="evenodd"/>
        <path id="Trazado_726347" data-name="Trazado 726347" d="M206.857,124.528a.9.9,0,0,1-.066,1,.425.425,0,0,1-.678-.032s-4.519,10.926-5.693,8.79-2.446-4.223-2.452-7.257,3.014-5.127,2.316-6.079c-.663-.907-1.81.009-1.916.1l0,0,0,0h0a7.993,7.993,0,0,0-1.514,1.891.435.435,0,0,1-.734.115.905.905,0,0,1-.106-1c.006-.012,2.217-4.046,5.161-3.221,2.812.79,5.683,5.677,5.691,5.69" fill="#dee8ee" fill-rule="evenodd"/>
        <path id="Trazado_726348" data-name="Trazado 726348" d="M259.976,61.817c-53-11.427-55.376,34.126-58.9,70.481-5.484,56.6,60.78,71.964,80.765,18.729,12.838-34.2,30.749-76.146-21.867-89.21" fill="#dee9f0" fill-rule="evenodd"/>
        <path id="Trazado_726349" data-name="Trazado 726349" d="M289.125,131.143a132.683,132.683,0,0,0,5.439-20.7c-4.383-3.5-9.233-6.311-13.326-6.438-8.412-.26-66.177-5.9-66.177-5.464s.087,4.944.087,4.944,43.714,4.424,64.182,21.424a40.206,40.206,0,0,0,9.8,6.229" fill="#363636" fill-rule="evenodd"/>
        <path id="Trazado_726350" data-name="Trazado 726350" d="M283.212,147.4c1.747-4.633,3.684-9.8,5.339-14.571,11.1-32.031,14.342-56.583-29.4-67.443-44.06-9.5-51.958,13.972-56.084,47.619-.616,5.017-1.148,10.505-1.618,15.434h0s4.381-4.712,5.654-15.274c0,0,12.736-2.589,12.552-15.649-.264-18.961,23.017-14.917,34.867-12.17s32.447,7.064,23.785,23.931,4.457,24.092,4.457,24.092c-3.507,10.045.451,14.03.451,14.03" fill="#1a1a1a" fill-rule="evenodd"/>
        <path id="Trazado_726351" data-name="Trazado 726351" d="M266.592,54.158a4.06,4.06,0,1,1-4.851,3.075,4.059,4.059,0,0,1,4.851-3.075" fill="#ffa347" fill-rule="evenodd"/>
        <path id="Trazado_726352" data-name="Trazado 726352" d="M256.1,91.448c1.388-6.2-3.941-10.136-9.8-11.446s-12.352-.022-13.741,6.179l-2.208,9.875,23.536,5.266Z" fill="#d59c3c" fill-rule="evenodd"/>
        <path id="Trazado_726353" data-name="Trazado 726353" d="M241.7,97.553l12.661,2.833a4.557,4.557,0,0,1-1.989,8.894l-12.662-2.834a4.568,4.568,0,0,1-3.45-5.441h0a4.568,4.568,0,0,1,5.44-3.451" fill="#feb12e" fill-rule="evenodd"/>
        <path id="Trazado_726354" data-name="Trazado 726354" d="M229.265,94.771l16.414,3.674a4.556,4.556,0,0,1-1.988,8.892l-16.417-3.673a4.557,4.557,0,0,1,1.991-8.893" fill="#fff" fill-rule="evenodd"/>
        <path id="Trazado_726355" data-name="Trazado 726355" d="M298.282,104.758l-4.353,19.454v0a1.586,1.586,0,0,1-1.829.815c-1.38-.233-17.635-10.3-40.245-15.363,0,0-1.069-.354-.684-2.069s2.422-10.829,3.663-16.372-3.524-9.059-8.756-10.231-11.043-.02-12.283,5.523-3.281,14.66-3.665,16.372-1.5,1.58-1.5,1.58c-22.611-5.06-23.537,1.166-24.884.787a1.576,1.576,0,0,1-1.307-1.517l3.033-13.546c6.166-27.559,25.442-41.977,55.3-34.113,22.8,6.007,41.325,31.631,37.51,48.678" fill="#fccb37" fill-rule="evenodd"/>
        <path id="Trazado_726356" data-name="Trazado 726356" d="M231.822,95.339l-1.692,7.55c-.384,1.715-1.5,1.579-1.5,1.579-22.611-5.059-23.537,1.167-24.884.788a1.578,1.578,0,0,1-1.307-1.517l1.641-7.332s3.747-6.437,27.743-1.068" fill="#ffe875" fill-rule="evenodd"/>
        <path id="Trazado_726357" data-name="Trazado 726357" d="M252.861,100.046l-1.69,7.551c-.385,1.715.684,2.069.684,2.069,22.61,5.059,38.864,15.13,40.245,15.363a1.583,1.583,0,0,0,1.828-.815v0l1.642-7.333a156.614,156.614,0,0,0-42.709-16.833" fill="#ffe875" fill-rule="evenodd"/>
        <path id="Trazado_726358" data-name="Trazado 726358" d="M247.734,81.451c3.018-14.615-11.664-16.921-12.713-8.618-12.965-29.761-33.738,27.358-3.2,22.506l13.291-1.684Z" fill="#ffe0aa" fill-rule="evenodd"/>
        <path id="Trazado_726359" data-name="Trazado 726359" d="M234.667,99.577a1.046,1.046,0,1,1-1.251.792,1.048,1.048,0,0,1,1.251-.792m10.356,2.318a1.046,1.046,0,1,1-1.25.791,1.047,1.047,0,0,1,1.25-.791m-5.176-1.159a1.046,1.046,0,1,1-1.251.793,1.046,1.046,0,0,1,1.251-.793" fill="#bfe1ff" fill-rule="evenodd"/>
        <path id="Trazado_726360" data-name="Trazado 726360" d="M275.5,107.632a.505.505,0,0,1-.153-.025.481.481,0,0,1-.3-.606c5.6-16.5,6.01-29.648,1.228-39.071-4.187-8.251-11.018-10.48-11.086-10.5a.477.477,0,1,1,.285-.911c.294.093,7.26,2.349,11.639,10.955,4.916,9.661,4.526,23.064-1.16,39.836a.479.479,0,0,1-.453.325" fill="#ffa347"/>
        <path id="Trazado_726361" data-name="Trazado 726361" d="M224.92,64.433c-2.837,7.6-2.07,18.07,16.634,25.876l.609.252c.443.183.687.278.556.44l0,0,0,0a.1.1,0,0,1-.149.018h0a7.76,7.76,0,0,1-.876-.235l-.338-.1a69.4,69.4,0,0,1-9.54-3.64,37.813,37.813,0,0,1-7.125-4.291,19.4,19.4,0,0,1-5.36-6.447,18.67,18.67,0,0,1-1.426-3.8c1.635-4.032,4.17-7.217,7.02-8.072" fill="#feb12e" fill-rule="evenodd"/>
        <path id="Trazado_726362" data-name="Trazado 726362" d="M156.058,262.664l-4.382-12.123c-2.045-5.654.122-7.244.122-7.244l10.032-6.768,12.04-1.211s2.683-.165,4.727,5.491l2.412,6.671,8.581,7.433c2.273,1.968.9,4.932.9,4.932a2.993,2.993,0,0,1,.175,3.379,89.427,89.427,0,0,1-11.439,13.2,2.987,2.987,0,0,1-3.368.307s-2.738,1.784-5.011-.185L159.4,266.63a24.072,24.072,0,0,1-3.338-3.966" fill="#c1e866" fill-rule="evenodd"/>
        <path id="Trazado_726363" data-name="Trazado 726363" d="M156.058,262.664l-4.382-12.123c-2.045-5.655.122-7.244.122-7.244l9.18-6.194,1.89.65,1.917,1.518-2.383,2.161s-5.657,2.288-3.785,6.888l7.936,19.514s-3.685-1.031-8.362-2.414a29.139,29.139,0,0,1-2.133-2.756" fill="#9fcf30" fill-rule="evenodd"/>
        <path id="Trazado_726364" data-name="Trazado 726364" d="M181.009,247.48l6.2,5.374c-5.429-.993-12.165,3.693-12.165,3.693Z" fill="#9fcf30" fill-rule="evenodd"/>
        <path id="Trazado_726365" data-name="Trazado 726365" d="M190.487,259.845a2.994,2.994,0,0,1,.176,3.379,89.492,89.492,0,0,1-11.44,13.2,2.988,2.988,0,0,1-3.368.308c6.1-4.507,14.632-16.891,14.632-16.891" fill="#bfe1ff" fill-rule="evenodd"/>
        <path id="Trazado_726366" data-name="Trazado 726366" d="M151.493,242.988c.424,1.171,5.784.306,11.973-1.931s10.865-5,10.44-6.172l-.869-2.408-22.414,8.1Z" fill="#bfe1ff" fill-rule="evenodd"/>
        <path id="Trazado_726367" data-name="Trazado 726367" d="M161.063,234.409c-6.189,2.237-10.864,5-10.439,6.171s5.784.308,11.972-1.93,10.862-5,10.442-6.173-5.787-.306-11.975,1.932" fill="#fff" fill-rule="evenodd"/>
        <path id="Trazado_726368" data-name="Trazado 726368" d="M161.317,235.112c-5.571,2.014-9.859,4.282-9.576,5.064s5.029-.217,10.6-2.231,9.858-4.282,9.576-5.063-5.029.216-10.6,2.23" fill="#fff" fill-rule="evenodd"/>
        <path id="Trazado_726369" data-name="Trazado 726369" d="M296.843,304.248c-.776-6.409-3.125-25.8-4.53-37.393s-10.8-17.125-11.462-22.586-3.888-32.085-3.888-32.085l-6.956.842-6.958.842s3.226,26.624,3.888,32.086-7.142,13.079-5.738,24.67,3.753,30.984,4.53,37.392c.243,3.307,1.119,5.508,4.716,6.633S282.3,314.5,282.3,314.5s8.322-.736,11.548-2.687,3.551-4.3,3-7.566" fill="#fccb37" fill-rule="evenodd"/>
        <path id="Trazado_726370" data-name="Trazado 726370" d="M286.256,262.99h0a2,2,0,0,1,2.254,1.682l1.784,12.308a1.988,1.988,0,1,1-3.934.572l-1.787-12.309a1.993,1.993,0,0,1,1.683-2.253" fill="#ffe875" fill-rule="evenodd"/>
        <path id="Trazado_726371" data-name="Trazado 726371" d="M271.04,262.214h0a5.835,5.835,0,0,1,6.594,4.923l5.224,36.012a5.818,5.818,0,1,1-11.516,1.671l-5.227-36.012a5.837,5.837,0,0,1,4.925-6.594" fill="#ffa347" fill-rule="evenodd"/>
        <path id="Trazado_726372" data-name="Trazado 726372" d="M263.729,219.486l-.681-5.618c-.22-1.835,13.693-3.52,13.914-1.684l.683,5.617c.221,1.835-13.693,3.52-13.916,1.685" fill="#ffe875" fill-rule="evenodd"/>
        <path id="Trazado_726373" data-name="Trazado 726373" d="M273.927,245.383c-3.843.467-7.033.214-7.126-.561l-.3-2.474c.094.776,3.284,1.027,7.128.561s6.88-1.471,6.785-2.246l.3,2.474c.094.776-2.944,1.781-6.786,2.246" fill="#ffe875" fill-rule="evenodd"/>
        <path id="Trazado_726374" data-name="Trazado 726374" d="M273.313,240.3c-3.846.465-7.036.213-7.128-.56l-.3-2.476c.1.775,3.284,1.027,7.126.562s6.881-1.472,6.788-2.247l.3,2.474c.093.776-2.946,1.781-6.785,2.247" fill="#ffe875" fill-rule="evenodd"/>
        <path id="Trazado_726375" data-name="Trazado 726375" d="M269.837,211.622c-3.843.466-6.881,1.472-6.788,2.246s3.285,1.027,7.13.562,6.88-1.471,6.784-2.246-3.284-1.026-7.126-.562" fill="#fff" fill-rule="evenodd"/>
        <path id="Trazado_726376" data-name="Trazado 726376" d="M111.844,255.547l3.227-2.011s14.039-6.009,21.946-4.551,31.115,12.167,31.115,12.167l23.759-4.666s5.9-1.344,10.565,1.156,20.57,13.146,22.283,14.409,1.911,3.932-.208,7.989-1.706,7.71-1.543,13.078-5.147,9-9.353,11.5-10.115,1.823-17.314-2.3-16.007-10.521-17.634-11.008-29.628,6.845-37.748,8.443-29.184-11.942-31.453-14.153-5.218-12.576-5.218-12.576Z" fill="#ffe875" fill-rule="evenodd"/>
        <path id="Trazado_726377" data-name="Trazado 726377" d="M191.015,299.1c-5.687-3.611-11.09-7.415-12.328-7.785-1.533-.461-26.485,6.025-36.152,8.111-3.674-.538-7.733-1.127-11.843-1.724-9.057-3.607-19.635-10.566-21.206-12.1-2.273-2.21-5.218-12.576-5.218-12.576l2.91-6.717,3.805-.331s9.745-6.248,17.328,5.473,23.76,11.829,41.453,6.977,36.9-8.9,46,5.863c4.612,7.483-9.322,12.158-24.753,14.806" fill="#fccb37" fill-rule="evenodd"/>
        <path id="Trazado_726378" data-name="Trazado 726378" d="M141.532,250.215c4.909,1.6,11.495,4.305,16.886,6.625.214,9.107-1.978,25.867-17.48,42.914-3.725.731-10.169-1.719-16.275-4.8,6.967-7.177,16.661-21.344,16.869-44.739" fill="#ff75ca" fill-rule="evenodd"/>
        <path id="Trazado_726379" data-name="Trazado 726379" d="M153.214,281.358a70.24,70.24,0,0,1-11.827,17.9c-3.365-.492-7.01-1.02-10.7-1.556-1.973-.786-4.018-1.732-6.026-2.744a56.984,56.984,0,0,0,11.122-16.633c4.809,2.566,10.787,3.42,17.429,3.037" fill="#e33ba3" fill-rule="evenodd"/>
        <path id="Trazado_726380" data-name="Trazado 726380" d="M225.993,275.971a13.325,13.325,0,0,1-1.463,4.069c-1.662,3.177-1.764,6.109-1.655,9.812h0s-1.01-7.6-10.849-13.216c0,0-1.307-1.141-.865-1.7s9.274,1.8,14.833,1.031" fill="#ffe875" fill-rule="evenodd"/>
        <path id="Trazado_726381" data-name="Trazado 726381" d="M189.545,298.155c-5.122-3.3-9.728-6.505-10.858-6.844a2.914,2.914,0,0,0-.892.028l19.855-2.97s-6.483,3.087-8.1,9.786" fill="#ffe875" fill-rule="evenodd"/>
        <path id="Trazado_726382" data-name="Trazado 726382" d="M168.132,261.152l10.611-2.084c-.806,4.131,2.851,8.462,2.851,8.462Z" fill="#fccb37" fill-rule="evenodd"/>
        <path id="Trazado_726383" data-name="Trazado 726383" d="M104.268,273.024c1.2.665,4.592-3.157,7.576-8.538s4.426-10.284,3.227-10.95l-9.1-5.045-10.8,19.489Z" fill="#12006c" fill-rule="evenodd"/>
        <path id="Trazado_726384" data-name="Trazado 726384" d="M98.395,257.03c-2.984,5.382-4.43,10.284-3.227,10.95s4.591-3.158,7.575-8.539,4.427-10.284,3.226-10.95-4.592,3.158-7.574,8.539" fill="#2c81fe" fill-rule="evenodd"/>
        <path id="Trazado_726385" data-name="Trazado 726385" d="M224.844,288.436c1.076-4.336,4.336-17.46,6.282-25.3s-2.764-13.739-1.846-17.435,3.234-13.023,3.234-13.023L227.8,231.5l-4.707-1.169s-2.317,9.328-3.234,13.024-7.843,6.7-9.791,14.544-5.207,20.967-6.285,25.3c-.658,2.2-.631,3.839,1.417,5.454s7.705,2.825,7.705,2.825,5.563,1.575,8.129,1.107,3.359-1.9,3.8-4.156" fill="#59b2ff" fill-rule="evenodd"/>
        <path id="Trazado_726386" data-name="Trazado 726386" d="M215.382,255.562h0a1.5,1.5,0,0,1,1.133,1.792l-2.063,9.141a1.5,1.5,0,0,1-2.923-.66l2.063-9.141a1.5,1.5,0,0,1,1.79-1.132" fill="#bfe1ff" fill-rule="evenodd"/>
        <path id="Trazado_726387" data-name="Trazado 726387" d="M226.7,256.583h0a4.4,4.4,0,0,1,3.311,5.241l-6.035,26.747a4.384,4.384,0,1,1-8.552-1.93l6.034-26.746a4.4,4.4,0,0,1,5.242-3.312" fill="#2c81fe" fill-rule="evenodd"/>
        <path id="Trazado_726388" data-name="Trazado 726388" d="M228.042,230.555c-2.6-.646-4.814-.744-4.944-.22s1.872,1.473,4.472,2.119,4.815.745,4.944.22-1.873-1.472-4.472-2.119" fill="#fff" fill-rule="evenodd"/>
        <path id="Trazado_726389" data-name="Trazado 726389" d="M226.627,236.255c-2.6-.646-4.6-1.6-4.473-2.119l.944-3.8c-.131.524,1.872,1.473,4.472,2.119s4.815.744,4.944.219l-.945,3.8c-.13.525-2.342.426-4.942-.22" fill="#bfe1ff" fill-rule="evenodd"/>
        <path id="Trazado_726390" data-name="Trazado 726390" d="M224.523,244.712c-2.6-.647-4.6-1.6-4.471-2.12l.416-1.674c-.129.524,1.873,1.473,4.473,2.119s4.812.744,4.944.22l-.416,1.674c-.131.524-2.342.426-4.946-.219" fill="#2c81fe" fill-rule="evenodd"/>
        <path id="Trazado_726391" data-name="Trazado 726391" d="M225.38,241.272c-2.6-.645-4.6-1.593-4.472-2.119l.416-1.675c-.131.526,1.87,1.474,4.472,2.121s4.814.743,4.943.218l-.416,1.675c-.131.524-2.342.426-4.943-.22" fill="#2c81fe" fill-rule="evenodd"/>
        <path id="Trazado_726392" data-name="Trazado 726392" d="M232.794,291.035l-8.3-9.86c-3.871-4.6-2.386-6.841-2.386-6.841l7.075-9.818,10.882-5.295s2.459-1.081,6.333,3.52l4.566,5.428,10.621,4.011c2.812,1.063,2.545,4.318,2.545,4.318a2.993,2.993,0,0,1,1.332,3.111,89.5,89.5,0,0,1-6.174,16.343,2.991,2.991,0,0,1-3.055,1.452s-1.953,2.618-4.766,1.556l-14.172-5.355a23.967,23.967,0,0,1-4.5-2.57" fill="#ff75ca" fill-rule="evenodd"/>
        <path id="Trazado_726393" data-name="Trazado 726393" d="M232.794,291.034l-8.3-9.86c-3.871-4.6-2.386-6.841-2.386-6.841L224.8,270.6l4.479-.023s4.562-2.643,6.43,3.323,9.055,7.918,17.9,7.481S264.13,276.5,264.13,276.5a3,3,0,0,1,1.332,3.112,94.856,94.856,0,0,1-3.738,10.97c-5.314.059-17.471.584-28.656.649-.176-.122-.274-.194-.274-.194" fill="#e33ba3" fill-rule="evenodd"/>
        <path id="Trazado_726394" data-name="Trazado 726394" d="M250.964,268.168l7.68,2.9c-5.438.944-10.14,7.667-10.14,7.667Z" fill="#e33ba3" fill-rule="evenodd"/>
        <path id="Trazado_726395" data-name="Trazado 726395" d="M264.13,276.5a2.993,2.993,0,0,1,1.332,3.111,89.5,89.5,0,0,1-6.174,16.343,2.99,2.99,0,0,1-3.055,1.452c4.165-6.336,7.9-20.906,7.9-20.906" fill="#12006c" fill-rule="evenodd"/>
        <path id="Trazado_726396" data-name="Trazado 726396" d="M221.715,274.148c.8.953,5.532-1.709,10.569-5.948s8.467-8.446,7.666-9.4l-1.65-1.959L220.065,272.19Z" fill="#bfe1ff" fill-rule="evenodd"/>
        <path id="Trazado_726397" data-name="Trazado 726397" d="M227.73,262.79c-5.033,4.238-8.466,8.446-7.666,9.4s5.536-1.711,10.571-5.948,8.467-8.448,7.664-9.4-5.533,1.711-10.569,5.948" fill="#fff" fill-rule="evenodd"/>
        <path id="Trazado_726398" data-name="Trazado 726398" d="M228.213,263.364c-4.531,3.813-7.773,7.422-7.235,8.059s4.643-1.941,9.173-5.755,7.775-7.423,7.24-8.059-4.646,1.94-9.178,5.755" fill="#fccb37" fill-rule="evenodd"/>
        <path id="Trazado_726399" data-name="Trazado 726399" d="M90.662,289.677l12.688,92.987s3.829,14.608,17,14.608h154.2c13.17,0,17-14.608,17-14.608l12.688-92.987Z" fill="#badc61" fill-rule="evenodd"/>
        <path id="Trazado_726400" data-name="Trazado 726400" d="M255.382,382.664l12.686-92.988h36.166l-12.689,92.988s-3.829,14.608-17,14.608H238.38c13.171,0,17-14.608,17-14.608" fill="#9fcf30" fill-rule="evenodd"/>
        <path id="Trazado_726401" data-name="Trazado 726401" d="M309.854,291.532H85.041a4.192,4.192,0,0,1-4.179-4.18h0a4.192,4.192,0,0,1,4.179-4.18H309.854a4.193,4.193,0,0,1,4.179,4.18h0a4.193,4.193,0,0,1-4.179,4.18" fill="#c1e866" fill-rule="evenodd"/>
        <path id="Trazado_726402" data-name="Trazado 726402" d="M272.146,291.532H85.041a4.191,4.191,0,0,1-4.178-4.18h0a4.191,4.191,0,0,1,4.178-4.18h187.1a4.191,4.191,0,0,1,4.178,4.18h0a4.191,4.191,0,0,1-4.178,4.18" fill="#fff" fill-rule="evenodd"/>
        <path id="Trazado_726403" data-name="Trazado 726403" d="M157.581,339.632,145.122,332.4a.347.347,0,0,0-.281-.037.356.356,0,0,0-.225.172l-9.843,17.236a10.481,10.481,0,0,0-.064,9.605c.326.718.8,1.489,1.189,2.177q1.035,1.8,2.1,3.585c.748,1.256,1.5,2.508,2.279,3.747a14.751,14.751,0,0,0,1.365,2,.37.37,0,0,0,.621-.282c-.09-3.714.992-5.406,2.8-8.454l12.647-22.017a.371.371,0,0,0-.135-.5m2.378,20.718a18.245,18.245,0,0,0,.033-2.13c-.009-.769-.051-1.58-.015-2.345a.363.363,0,0,1,.259-.337.369.369,0,0,1,.407.133l8.931,12a.371.371,0,0,1,0,.443L160.637,380.1a.361.361,0,0,1-.411.13.366.366,0,0,1-.255-.35l-.015-4.332-8.414-.011c-2.475,0-5-.4-6.788-2.272-3.13-3.489.461-9.616,2.534-12.75a.361.361,0,0,1,.309-.166Z" fill="#fff" fill-rule="evenodd"/>
        <path id="Trazado_726404" data-name="Trazado 726404" d="M171.826,357.913l-.032,14.4a.367.367,0,0,0,.371.371l19.847-.094a10.49,10.49,0,0,0,8.352-4.746c.457-.643.889-1.436,1.287-2.119q1.044-1.8,2.056-3.612c.713-1.275,1.422-2.557,2.1-3.847a14.429,14.429,0,0,0,1.054-2.184.37.37,0,0,0-.554-.4c-3.171,1.935-5.18,1.845-8.725,1.8l-25.391.055a.369.369,0,0,0-.369.368m16.756-12.419a17.926,17.926,0,0,0-1.863,1.036c-.66.393-1.343.835-2.023,1.186a.369.369,0,0,1-.509-.473l5.923-13.734a.366.366,0,0,1,.383-.221l14.855,1.743a.362.362,0,0,1,.319.291.366.366,0,0,1-.177.4l-3.744,2.179,4.2,7.291c1.235,2.145,2.153,4.536,1.426,7.015-1.455,4.456-8.557,4.411-12.309,4.182a.361.361,0,0,1-.3-.185Z" fill="#fff" fill-rule="evenodd"/>
        <path id="Trazado_726405" data-name="Trazado 726405" d="M180.537,336.434l12.491-7.173a.345.345,0,0,0,.171-.226.351.351,0,0,0-.037-.281l-10-17.141a10.493,10.493,0,0,0-8.287-4.86c-.786-.074-1.69-.053-2.481-.055-1.385-.005-2.771.007-4.156.025-1.46.02-2.924.047-4.382.1a14.7,14.7,0,0,0-2.418.179.37.37,0,0,0-.067.678c3.261,1.78,4.186,3.564,5.92,6.658L180.033,336.3a.371.371,0,0,0,.5.134m-19.134-8.3a18.08,18.08,0,0,0,1.828,1.094c.672.376,1.394.746,2.04,1.159a.37.37,0,0,1-.158.678L150.259,332.8a.362.362,0,0,1-.38-.221l-5.921-13.735a.37.37,0,0,1,.523-.468l3.761,2.153,4.217-7.282c1.24-2.141,2.85-4.131,5.359-4.741,4.588-.966,8.1,5.206,9.775,8.57a.358.358,0,0,1-.01.35Z" fill="#fff" fill-rule="evenodd"/>
        <path id="Trazado_726406" data-name="Trazado 726406" d="M96,48.053l3.787,2.053s13.774,10.468,16.762,19.072,5.42,37.461,5.42,37.461l17.887,20.8s4.628,5.065,4.774,11.056-1.446,27.616-1.731,30.012-2.8,4.083-7.985,4.263-8.552,2.635-13.748,5.8-11.746-.037-16.559-2.781-7.456-8.945-7.425-18.342,1.409-21.656.98-23.531-23.318-25.357-29.433-32.465c-3.713-4.313-4.6-16.435-4.522-26.08.113-13.668.2-14.7,10.336-25Z" fill="#fff" fill-rule="evenodd"/>
        <path id="Trazado_726407" data-name="Trazado 726407" d="M121.9,105.892l.064.747,6.976,8.109c-3.9,1.874-8.206,3.556-9.074,3.912-1.536.634-9.837,7.233-10.679,8.733s-1.329,4.515.556,4.322,8.53-2.119,10.677-2.723a82.239,82.239,0,0,1,11-1.815c3.108-.372,5.649-.759,7.552-.763l.88,1.022a21.805,21.805,0,0,1,3.016,4.546,3.028,3.028,0,0,1-1.286,1.736c-1.944,1.078-8.669,2.638-11.186,3.62s-16.906,7.583-17.766,8.493.717,2,1.65,2.041,14.039-2.873,20.74-3.612c5.8-.64,9.733,4.285,1.556,8.478-3.034,1.554-20.269,5.974-20.666,6.46-4.752,5.8-14.16,8.64-15.4,9.13a3.444,3.444,0,0,0-1.375.935,30.439,30.439,0,0,1-1.962-11.822c.029-9.4,1.41-21.656.981-23.532-.22-.964-6.374-7.637-13.136-14.861,4.688-11.7,9.035-22.179,9.764-23.407,1.645-2.774,3.877-4.157,9.845-7.487a34.242,34.242,0,0,1,7.427-3.345c5.872-1.524,5.088,5.261,1.255,8.543-3.194,2.736-9.7,7.929-10.16,8.7-.573.96-2.192,7.378-2.828,9.737s.556,5.028,2.823,4.122,10.438-7.507,12.914-8.26c.882-.269,3.159-.968,5.838-1.761" fill="#bfe1ff" fill-rule="evenodd"/>
        <path id="Trazado_726408" data-name="Trazado 726408" d="M117.858,74.317c1.169,5.73,2.189,13.731,2.92,20.341-8.851,5.306-26.587,12.523-52.053,6.787-2.805-3.259-4-10.979-4.379-18.719,10.969,2.848,30.349,4.474,53.512-8.409" fill="#badc61" fill-rule="evenodd"/>
        <path id="Trazado_726409" data-name="Trazado 726409" d="M103.532,101.627a69.027,69.027,0,0,1-12.145,1.8c1.765-4.239,3.036-7.169,3.4-7.783,1.645-2.775,3.877-4.157,9.846-7.488a34.317,34.317,0,0,1,7.426-3.345c5.872-1.523,5.088,5.262,1.255,8.544-2.83,2.425-8.259,6.777-9.782,8.275" fill="#9fcf30" fill-rule="evenodd"/>
        <path id="Trazado_726410" data-name="Trazado 726410" d="M139.736,171.933a15.151,15.151,0,0,1-4.825.833c-4.061.142-7.007,1.68-10.593,3.859h0s6.924-5.249,6.951-18.081c0,0,.391-1.925,1.187-1.8s3.413,10.143,7.281,15.19" fill="#bfe1ff" fill-rule="evenodd"/>
        <path id="Trazado_726411" data-name="Trazado 726411" d="M97.491,148.435c.39-6.9.968-13.222.668-14.526a3.284,3.284,0,0,0-.526-.863l14.033,17.9s-6.667-4.661-14.175-2.511" fill="#ff75ca" fill-rule="evenodd"/>
        <path id="Trazado_726412" data-name="Trazado 726412" d="M111.675,151.092h-.009a.153.153,0,0,1-.083-.026,19.429,19.429,0,0,0-10-3.052,14.7,14.7,0,0,0-4.055.562.148.148,0,0,1-.131-.027.145.145,0,0,1-.054-.122c.115-2.026.248-4.041.366-5.818.286-4.34.513-7.768.306-8.668a2.994,2.994,0,0,0-.5-.808.145.145,0,0,1,.231-.176l14.013,17.872a.145.145,0,0,1-.085.263m-10.089-3.369a19.665,19.665,0,0,1,9.46,2.668L98.351,134.2a82.205,82.205,0,0,1-.349,8.43c-.113,1.717-.241,3.657-.354,5.613a15.015,15.015,0,0,1,3.938-.518" fill="#12006c"/>
        <path id="Trazado_726413" data-name="Trazado 726413" d="M121.966,106.639l7.988,9.288c-4.519,1.519-6.741,7.543-6.741,7.543Z" fill="#bfe1ff" fill-rule="evenodd"/>
        <path id="Trazado_726414" data-name="Trazado 726414" d="M74.542,50.366c.018,1.556,5.68,2.758,12.649,2.686S99.8,51.661,99.784,50.1l-.123-11.789-25.24.262Z" fill="#badc61" fill-rule="evenodd"/>
        <path id="Trazado_726415" data-name="Trazado 726415" d="M87.012,35.631c-6.97.071-12.607,1.39-12.591,2.946s5.679,2.758,12.651,2.686,12.606-1.391,12.589-2.946-5.677-2.758-12.649-2.686" fill="#9fcf30" fill-rule="evenodd"/>
        <path id="Trazado_726416" data-name="Trazado 726416" d="M94.217,171.739s-2.005-4.1,1.521-5.5c1.236-.489,10.644-3.326,15.4-9.129.4-.486,17.632-4.9,20.666-6.461,8.177-4.192,4.247-9.118-1.556-8.477-6.7.739-19.805,3.654-20.74,3.613s-2.509-1.131-1.648-2.041,15.251-7.513,17.766-8.494,9.241-2.541,11.184-3.62,2.094-5.4.421-6.623-5.309-.549-10.583.082a81.923,81.923,0,0,0-11,1.816c-2.149.6-8.793,2.529-10.678,2.724s-1.4-2.823-.557-4.323,9.143-8.1,10.679-8.732,13.841-5.414,15.583-8.055c3.294-5-.282-8.3-4.926-7.128-4.952,1.253-12.649,3.623-14.461,4.174-2.476.754-10.646,7.353-12.912,8.259s-3.46-1.761-2.825-4.121,2.255-8.776,2.828-9.737c.462-.773,6.968-5.964,10.161-8.7,3.832-3.282,4.616-10.069-1.256-8.545a34.381,34.381,0,0,0-7.426,3.345c-5.969,3.331-8.2,4.714-9.845,7.488s-21.77,52.79-22.545,57.355S79.7,164.858,94.217,171.739" fill="#34bc85" fill-rule="evenodd"/>
        <path id="Trazado_726417" data-name="Trazado 726417" d="M294.376,364.824c-11.153-6.594-15.82-9.773-17.615-10.018s-12.27-2.307-15.314-2.674a94.617,94.617,0,0,0-12.824.182c-1.569.185-2.03,8.489,8.947,9.688l8.765,3.322a41.812,41.812,0,0,1,1.386,7.656c.275,3.875-4.152,8.58-6.182,9.317-1.6.582-17.618-.08-25.758-.607-11.841-.765-10.8,7.629-.346,9.991,5.909,1.334,19.55,5.315,20.2,5.591H238.2c4.187,5.889,8.686,14.226,16.978,10.672,5.911,4.837,8.66,4.719,15.624,2.4a25.335,25.335,0,0,0,7.9.363c12.15-1.216,37.494-32.992,15.679-45.888" fill="#34bc85" fill-rule="evenodd"/>
        <path id="Trazado_726419" data-name="Trazado 726419" d="M89.061,167.872a22.1,22.1,0,0,1-5.164-.614.478.478,0,0,1-.353-.576.485.485,0,0,1,.576-.353,21.5,21.5,0,0,0,2.175.4,19.137,19.137,0,0,0,9.252-.931.478.478,0,1,1,.381.876,18.568,18.568,0,0,1-6.867,1.193M103.924,146.7a.478.478,0,0,1-.255-.883l3.932-2.476a.478.478,0,0,1,.51.808l-3.932,2.477a.491.491,0,0,1-.255.074m-2.983-15.824a.478.478,0,0,1-.077-.949l4.7-.771a.478.478,0,1,1,.155.943l-4.7.77a.4.4,0,0,1-.077.007M94.6,116.292a.478.478,0,0,1-.223-.9l3.779-1.988a.478.478,0,0,1,.445.846l-3.778,1.987a.479.479,0,0,1-.223.056" fill="#2c81fe"/>
        <path id="Trazado_726420" data-name="Trazado 726420" d="M95.645,166.28a18.776,18.776,0,0,1-6.6,1.114,21.414,21.414,0,0,1-2.675-.168,7.6,7.6,0,0,0,.839.938,11.188,11.188,0,0,0,5.748,2.971c.213.04.434.074.659.1.135.018.271.032.41.044-.4-1.1-1.078-3.86,1.609-5l.006,0" fill="#127c51" fill-rule="evenodd"/>
        <path id="Trazado_726421" data-name="Trazado 726421" d="M124.16,240.3a.476.476,0,0,1-.408-.232l-6.446-10.689a.477.477,0,1,1,.817-.494l6.446,10.69a.478.478,0,0,1-.409.725" fill="#2c81fe"/>
        <path id="Trazado_726422" data-name="Trazado 726422" d="M269.689,368.227a24.208,24.208,0,0,1-2.543-2.1c-.515-.485-.811-.808-.811-.808s.382,1.307.754,3.172a37.69,37.69,0,0,1,.621,4.333c2.054-3.058,4.22-3.028,5.262-2.777a15.692,15.692,0,0,1-3.283-1.825" fill="#2c81fe" fill-rule="evenodd"/>
        <path id="Trazado_726423" data-name="Trazado 726423" d="M242.779,403.647a17.726,17.726,0,0,1,13.139-6.252l-.284-.122H238.2c1.443,2.03,2.925,4.35,4.584,6.374" fill="#14895a" fill-rule="evenodd"/>
        <path id="Trazado_726424" data-name="Trazado 726424" d="M294.376,365.3a.479.479,0,0,1-.243-.067c-3.326-1.968-6.076-3.63-8.347-5-5.111-3.092-7.928-4.795-9.09-4.953-.728-.1-2.859-.492-5.325-.948-3.64-.671-8.171-1.507-9.981-1.726a96.493,96.493,0,0,0-12.713.184.478.478,0,0,1-.11-.949,95.718,95.718,0,0,1,12.939-.183c1.837.222,6.385,1.061,10.038,1.735,2.454.453,4.575.844,5.281.941,1.359.184,3.9,1.719,9.456,5.082,2.268,1.371,5.015,3.032,8.339,5a.479.479,0,0,1-.244.89m54.068-50.146a.477.477,0,0,1-.475-.434,158.476,158.476,0,0,0-3.022-18.135.477.477,0,1,1,.928-.217,158.464,158.464,0,0,1,3.044,18.264.478.478,0,0,1-.43.52l-.045,0M77.266,251.129a.479.479,0,0,1-.468-.384c-7.9-39.515-13.756-89.5-9.421-101.353,1.615-5.246,7.74-20.948,13.165-34.424-4.833-5.151-9.792-10.438-12.179-13.212-4.183-4.862-4.7-18.624-4.636-26.395.113-13.693.122-14.811,10.475-25.332a.478.478,0,0,1,.68.671C64.8,60.945,64.795,61.759,64.683,75.369c-.05,6.148.276,20.966,4.4,25.764,2.323,2.7,7.119,7.818,11.85,12.857,4.281-10.615,8.041-19.628,8.663-20.678,1.683-2.84,3.955-4.277,10.022-7.662a34.768,34.768,0,0,1,7.541-3.39.478.478,0,0,1,.24.925,33.9,33.9,0,0,0-7.314,3.3c-6.02,3.358-8.1,4.667-9.667,7.314-1.418,2.388-19.2,46.36-22.138,55.9-4.152,11.351,1.538,61.308,9.452,100.861a.479.479,0,0,1-.375.562.525.525,0,0,1-.1.009m148.986-69.59a.472.472,0,0,1-.177-.034c-12.982-5.254-25.97-19.219-25.8-43.046a5.023,5.023,0,0,1-3.443-1.828c-3.041-3.479-3.384-10.935-3.016-13.458a12,12,0,0,1,3.3-6.228.477.477,0,1,1,.681.669,11.169,11.169,0,0,0-3.038,5.7c-.339,2.317-.006,9.493,2.79,12.691a4.119,4.119,0,0,0,2.736,1.5q.057-2.549.316-5.247a.477.477,0,0,1,.95.092c-2.627,27.106,11.131,42.71,24.879,48.274a.478.478,0,0,1-.18.92m62.3-16a22.563,22.563,0,0,1-3.165-.228.478.478,0,0,1-.406-.54.488.488,0,0,1,.541-.407,19.393,19.393,0,0,0,17.946-6.782.477.477,0,1,1,.774.559,20.286,20.286,0,0,1-15.69,7.4m-229.981-7.4a.479.479,0,0,1-.479-.471,33.315,33.315,0,0,1,2.982-13.46.478.478,0,0,1,.86.416,32.967,32.967,0,0,0-2.885,13.031.48.48,0,0,1-.472.484Zm143.869-53.922a.547.547,0,0,1-.106-.012.478.478,0,0,1-.362-.571L205,90.088c3.239-14.475,10.114-25.266,19.879-31.206,9.7-5.9,21.819-7,36.01-3.264,18.084,4.764,32.116,20.979,36.632,34.535a.477.477,0,1,1-.9.3c-4.436-13.313-18.214-29.236-35.969-33.913-13.933-3.668-25.8-2.607-35.272,3.155-9.539,5.8-16.261,16.384-19.443,30.6l-3.03,13.546a.479.479,0,0,1-.465.374m25.82-8.1c-8.524,0-11.3-5.647-12.208-9.31-2.116-8.576,2.422-20.707,8.52-22.77,2.322-.786,6.827-.714,10.888,8.607a.478.478,0,0,1-.876.382c-2.785-6.389-6.227-9.26-9.705-8.084-5.71,1.932-9.917,13.459-7.9,21.636,1.63,6.6,6.873,9.547,14.765,8.291a.469.469,0,0,1,.546.4.475.475,0,0,1-.4.546,23.185,23.185,0,0,1-3.635.305" fill="#fff"/>
        <path id="Trazado_726425" data-name="Trazado 726425" d="M227.956,131.18c-1.212-3.881-3.056-6.169-5.106-7.278a6.937,6.937,0,0,0-4.371-.752,9.33,9.33,0,0,0-4.124,1.764,10.637,10.637,0,0,0-4.3,7.08.147.147,0,0,0,.129.164.15.15,0,0,0,.162-.108,8.756,8.756,0,0,1,3.52-4.808,9.236,9.236,0,0,1,4.415-1.657,7.48,7.48,0,0,1,4.707,1.115,11.53,11.53,0,0,1,4.428,6.018,10.137,10.137,0,0,1,.556,2.231h0a8.628,8.628,0,0,1,.014,2.165.148.148,0,0,0,.291.053,10.435,10.435,0,0,0,.239-2.918,12.661,12.661,0,0,0-.555-3.07" fill="#2c81fe" fill-rule="evenodd"/>
        <path id="Trazado_726427" data-name="Trazado 726427" d="M236.375,136.848a.813.813,0,0,1-.144.214l-.335.361-.007.007c-1.713,1.842-7.189,7.741-7.362,8.488-.084.546,1.52,2.6,1.879,3.016.828.949,3.427.568,4.359.434,4.034-.58-3.076,2.743-4.477,1.977a6.769,6.769,0,0,1-2.445-2.368,5.75,5.75,0,0,1-1.173-3.4c.164-1.066,5.815-7.317,7.729-9.324,1.826-2,2.176-3.493,2.088-4.438-.058-.642.145-1.533.692-.22a5.107,5.107,0,0,1-.8,5.255" fill="#2e2e2e" fill-rule="evenodd"/>
        <path id="Trazado_726428" data-name="Trazado 726428" d="M229.519,119.79a1.676,1.676,0,0,1-.407.913,2.088,2.088,0,0,0-1.038-1.859c-2.807-1.725-6.86-2.18-10.436-1.705l1.957,1.882h.017a18.95,18.95,0,0,1,7.4,3.221,2.736,2.736,0,0,0,1.175.641,1.339,1.339,0,0,0,1.355-.7,3.283,3.283,0,0,0,.339-.611,2.759,2.759,0,0,0,.222-1.258,1.248,1.248,0,0,0-.2-.689.149.149,0,0,0-.032-.023l0,0h0c-.24-.129-.343.169-.344.17h0Zm-13.454-2.373a12.855,12.855,0,0,0-4.034,1.553.121.121,0,0,0-.048.112.085.085,0,0,0,.1.077,15.636,15.636,0,0,1,5.322-.454Z" fill="#12006c" fill-rule="evenodd"/>
        <path id="Trazado_726429" data-name="Trazado 726429" d="M251.7,115.963a1.955,1.955,0,0,0,.016,1.237,2.528,2.528,0,0,1,2.232-1.467c6.922-.519,16.03,4.39,19.362,9.159a.135.135,0,0,1,0,.149.113.113,0,0,1-.162.028,23.756,23.756,0,0,0-9.045-4.38,26.778,26.778,0,0,0-10.658-.615,3.77,3.77,0,0,1-1.755.048,1.822,1.822,0,0,1-1.274-1.529,3.66,3.66,0,0,1-.094-.866,3.155,3.155,0,0,1,.391-1.511,1.42,1.42,0,0,1,.606-.645.189.189,0,0,1,.05-.009h.007c.36-.008.329.377.329.379h0Z" fill="#12006c" fill-rule="evenodd"/>
        <path id="Trazado_726430" data-name="Trazado 726430" d="M227.971,131.764c-1.213-3.882-3.056-6.169-5.107-7.278a6.941,6.941,0,0,0-4.371-.752,9.324,9.324,0,0,0-4.125,1.764,10.634,10.634,0,0,0-4.3,7.08.148.148,0,0,0,.291.054,8.768,8.768,0,0,1,3.522-4.807,9.245,9.245,0,0,1,4.415-1.657A7.492,7.492,0,0,1,223,127.283a11.526,11.526,0,0,1,4.428,6.02,10.06,10.06,0,0,1,.556,2.23h0a8.488,8.488,0,0,1,.012,2.165.149.149,0,0,0,.129.167.147.147,0,0,0,.163-.114,10.434,10.434,0,0,0,.24-2.918,12.7,12.7,0,0,0-.554-3.07" fill="#12006c" fill-rule="evenodd"/>
        <path id="Trazado_726431" data-name="Trazado 726431" d="M224.906,129.587a16.755,16.755,0,0,0-.687-1.553,7.8,7.8,0,0,0-4.392-2.415c-4.022-.738-7.829,1.646-8.5,5.324-1.124,6.12,6.58,9.173,11.234,7.186a6.861,6.861,0,0,0,2.215-1.938,7.87,7.87,0,0,0,.133-6.6" fill="#272728" fill-rule="evenodd"/>
        <path id="Trazado_726432" data-name="Trazado 726432" d="M209.246,135.646a.478.478,0,0,1-.045-.953,1.607,1.607,0,0,0,.7-.218.48.48,0,0,1,.663.114.474.474,0,0,1-.105.661,2.43,2.43,0,0,1-1.164.393.233.233,0,0,1-.046,0" fill="#bfe1ff"/>
        <path id="Trazado_726433" data-name="Trazado 726433" d="M210.753,137.328a.478.478,0,0,1-.213-.906,1.187,1.187,0,0,0,.423-.331.483.483,0,0,1,.661-.125.475.475,0,0,1,.135.654,2.074,2.074,0,0,1-.8.659.465.465,0,0,1-.21.049" fill="#bfe1ff"/>
        <path id="Trazado_726434" data-name="Trazado 726434" d="M218.04,128.045a1.305,1.305,0,0,0-1.6.922,1.32,1.32,0,0,0,.888,1.634,1.3,1.3,0,0,0,1.6-.922,1.32,1.32,0,0,0-.887-1.634" fill="#fff" fill-rule="evenodd"/>
        <path id="Trazado_726435" data-name="Trazado 726435" d="M257.627,130.7c-2.549.341-5.349,1.979-8.12,5.509a13.9,13.9,0,0,0-1.775,2.951,11.442,11.442,0,0,0-.895,3.1.165.165,0,0,0,.124.181.162.162,0,0,0,.2-.122,9.413,9.413,0,0,1,.864-2.228,11.119,11.119,0,0,1,1.446-2.086,12.725,12.725,0,0,1,6.929-4.475,8.262,8.262,0,0,1,5.292.7,10.178,10.178,0,0,1,3.9,3.438A9.674,9.674,0,0,1,267.342,144a.164.164,0,0,0,.322.057,11.737,11.737,0,0,0-1.669-8.99,10.294,10.294,0,0,0-3.563-3.436,7.668,7.668,0,0,0-4.8-.937" fill="#12006c" fill-rule="evenodd"/>
        <path id="Trazado_726436" data-name="Trazado 726436" d="M251.393,134.594a18.539,18.539,0,0,1,1.32-1.334,8.605,8.605,0,0,1,5.478-.769c4.436.815,7.431,4.766,6.686,8.824-1.239,6.754-10.381,6.884-14.407,3.012a7.612,7.612,0,0,1-1.526-2.867c-.391-2.305.7-4.913,2.449-6.866" fill="#181819" fill-rule="evenodd"/>
        <path id="Trazado_726437" data-name="Trazado 726437" d="M267.524,147.535a.473.473,0,0,1-.212-.049,2.625,2.625,0,0,1-1.025-.846.478.478,0,0,1,.8-.525,1.779,1.779,0,0,0,.652.514.478.478,0,0,1-.213.906" fill="#bfe1ff"/>
        <path id="Trazado_726438" data-name="Trazado 726438" d="M265.314,148.681a.481.481,0,0,1-.352-.154,2.251,2.251,0,0,1-.548-.968.478.478,0,0,1,.932-.209,1.381,1.381,0,0,0,.319.528.48.48,0,0,1-.026.675.474.474,0,0,1-.325.128" fill="#bfe1ff"/>
        <path id="Trazado_726439" data-name="Trazado 726439" d="M254.967,135.353a1.44,1.44,0,0,0-1.771,1.019,1.456,1.456,0,0,0,.979,1.8,1.439,1.439,0,0,0,1.771-1.018,1.456,1.456,0,0,0-.979-1.8" fill="#fff" fill-rule="evenodd"/>
        <path id="Trazado_726440" data-name="Trazado 726440" d="M229.506,162.669a1.158,1.158,0,0,1-.725-1.354.949.949,0,0,1,1.153-.82,14.188,14.188,0,0,0,6.423,1.028.839.839,0,1,1,.067,1.661,22.487,22.487,0,0,1-6.918-.515" fill="#2e2e2e" fill-rule="evenodd"/>
        <path id="Trazado_726441" data-name="Trazado 726441" d="M223.318,155.848a1.191,1.191,0,0,1-.518-1.508.994.994,0,0,1,1.391-.5,32.779,32.779,0,0,0,19.072,2.68c1.359-.209,1.465,1.212.108,1.421-10.062,2.364-20.028-2.075-20.053-2.089" fill="#2e2e2e" fill-rule="evenodd"/>
        <path id="Trazado_726442" data-name="Trazado 726442" d="M362.111,127.035a33.507,33.507,0,0,1-15.875-1.976c-6.967,8.211-20.755,4.222-20.755,4.222a16.149,16.149,0,0,0,10.449-10.458,33.673,33.673,0,1,1,26.181,8.212" fill="#feb12e" fill-rule="evenodd"/>
        <path id="Trazado_726443" data-name="Trazado 726443" d="M333.062,131.206a30.966,30.966,0,0,1-7.847-1.007.956.956,0,0,1-.032-1.826,15.147,15.147,0,0,0,9.63-9.271,34.627,34.627,0,0,1,19.416-59.911,35.253,35.253,0,0,1,4.037-.234,34.63,34.63,0,1,1-11.75,67.226c-3.079,3.289-7.714,5.023-13.454,5.023m-4.386-2.248a29.879,29.879,0,0,0,4.386.337c3.8,0,9.043-.842,12.445-4.853a.957.957,0,0,1,1.07-.275,32.721,32.721,0,1,0,11.689-63.3,33.259,33.259,0,0,0-3.817.222,32.717,32.717,0,0,0-17.885,57.017.954.954,0,0,1,.27,1.029,17.246,17.246,0,0,1-8.158,9.822" fill="#fff"/>
        <path id="Trazado_726444" data-name="Trazado 726444" d="M385.715,98.111a.543.543,0,0,1-.069,0,.481.481,0,0,1-.4-.543A27.236,27.236,0,0,0,378.5,75.3a.478.478,0,0,1,.71-.64A28.194,28.194,0,0,1,386.188,97.7a.477.477,0,0,1-.473.407M375.6,72.384a.48.48,0,0,1-.3-.105c-.686-.553-1.406-1.074-2.135-1.552a.478.478,0,0,1,.526-.8c.752.494,1.5,1.035,2.207,1.6a.478.478,0,0,1-.3.851" fill="#fff"/>
        <path id="Trazado_726445" data-name="Trazado 726445" d="M350.854,91.287,343.8,87.195a.2.2,0,0,0-.159-.021.215.215,0,0,0-.129.1l-5.57,9.755a5.947,5.947,0,0,0-.038,5.437c.186.406.453.843.677,1.232.388.68.787,1.356,1.186,2.029.423.711.852,1.42,1.291,2.121a8.309,8.309,0,0,0,.773,1.134.2.2,0,0,0,.227.036.205.205,0,0,0,.124-.2c-.05-2.1.561-3.059,1.588-4.785l7.158-12.462a.21.21,0,0,0-.077-.286m1.347,11.728a9.934,9.934,0,0,0,.018-1.207c0-.434-.029-.893-.007-1.326a.2.2,0,0,1,.146-.191.209.209,0,0,1,.23.075l5.054,6.79a.209.209,0,0,1,0,.251l-5.057,6.789a.211.211,0,0,1-.379-.125l-.006-2.453-4.763-.006a5.06,5.06,0,0,1-3.841-1.286c-1.772-1.975.258-5.443,1.432-7.217a.211.211,0,0,1,.176-.093Z" fill="#fff" fill-rule="evenodd"/>
        <path id="Trazado_726446" data-name="Trazado 726446" d="M358.917,101.637l-.018,8.153a.21.21,0,0,0,.211.209l11.233-.053a5.942,5.942,0,0,0,4.727-2.686c.259-.364.5-.813.729-1.2q.591-1.019,1.163-2.045c.4-.721.8-1.447,1.191-2.176a7.863,7.863,0,0,0,.595-1.237.2.2,0,0,0-.081-.216.2.2,0,0,0-.229-.009c-1.8,1.1-2.933,1.045-4.939,1.019l-14.373.032a.21.21,0,0,0-.209.209m9.484-7.03a10.041,10.041,0,0,0-1.055.586c-.372.222-.759.472-1.142.672a.212.212,0,0,1-.241-.032.209.209,0,0,1-.05-.237l3.354-7.773a.2.2,0,0,1,.216-.125l8.407.986a.2.2,0,0,1,.181.165.208.208,0,0,1-.1.223l-2.12,1.234,2.377,4.127a5.077,5.077,0,0,1,.807,3.97c-.824,2.523-4.845,2.5-6.968,2.367a.207.207,0,0,1-.168-.1Z" fill="#fff" fill-rule="evenodd"/>
        <path id="Trazado_726447" data-name="Trazado 726447" d="M363.849,89.479l7.069-4.061a.2.2,0,0,0,.1-.128.19.19,0,0,0-.021-.159l-5.662-9.7a5.946,5.946,0,0,0-4.691-2.751c-.444-.042-.956-.029-1.4-.031-.786,0-1.571,0-2.353.015-.828.011-1.655.026-2.482.056a8.252,8.252,0,0,0-1.367.1.206.206,0,0,0-.146.18.2.2,0,0,0,.107.2c1.846,1.007,2.371,2.017,3.351,3.768l7.211,12.43a.213.213,0,0,0,.288.077m-10.829-4.7a10.373,10.373,0,0,0,1.035.62c.379.212.786.421,1.152.655a.2.2,0,0,1,.091.224.208.208,0,0,1-.18.161l-8.407.982a.2.2,0,0,1-.215-.125l-3.351-7.775a.208.208,0,0,1,.3-.264l2.129,1.219,2.387-4.122a5.073,5.073,0,0,1,3.035-2.683c2.594-.547,4.582,2.946,5.531,4.85a.2.2,0,0,1-.006.2Z" fill="#fff" fill-rule="evenodd"/>
        <path id="Trazado_726448" data-name="Trazado 726448" d="M141.149,90.34a6.874,6.874,0,0,0,6.874,6.876,6.873,6.873,0,0,0-6.874,6.875,6.876,6.876,0,0,0-6.876-6.875,6.876,6.876,0,0,0,6.876-6.876" fill="#fccb37" fill-rule="evenodd"/>
        <path id="Trazado_726449" data-name="Trazado 726449" d="M152.85,113.579a4.426,4.426,0,0,0,4.427,4.427,4.426,4.426,0,0,0-4.427,4.427,4.427,4.427,0,0,0-4.427-4.427,4.428,4.428,0,0,0,4.427-4.427" fill="#fccb37" fill-rule="evenodd"/>
        <path id="Trazado_726450" data-name="Trazado 726450" d="M54.049,105.61a4.426,4.426,0,0,0,4.427,4.426,4.427,4.427,0,0,0-4.427,4.427,4.426,4.426,0,0,0-4.427-4.427,4.425,4.425,0,0,0,4.427-4.426" fill="#fccb37" fill-rule="evenodd"/>
        <path id="Trazado_726451" data-name="Trazado 726451" d="M119.483,43.411a4.424,4.424,0,0,0,4.425,4.426,4.425,4.425,0,0,0-4.425,4.427,4.428,4.428,0,0,0-4.427-4.427,4.427,4.427,0,0,0,4.427-4.426" fill="#fccb37" fill-rule="evenodd"/>
        <path id="Trazado_726452" data-name="Trazado 726452" d="M333.508,145.221a6.875,6.875,0,0,0,6.874,6.876,6.874,6.874,0,0,0-6.874,6.875,6.876,6.876,0,0,0-6.875-6.875,6.876,6.876,0,0,0,6.875-6.876" fill="#fccb37" fill-rule="evenodd"/>
        <path id="Trazado_726453" data-name="Trazado 726453" d="M355.026,159.72a4.425,4.425,0,0,0,4.426,4.425,4.426,4.426,0,0,0-4.426,4.427,4.427,4.427,0,0,0-4.427-4.427,4.426,4.426,0,0,0,4.427-4.425" fill="#fccb37" fill-rule="evenodd"/>
        <path id="Trazado_726454" data-name="Trazado 726454" d="M56.963,273.934a4.426,4.426,0,0,0,4.427,4.427,4.426,4.426,0,0,0-4.427,4.427,4.426,4.426,0,0,0-4.427-4.427,4.427,4.427,0,0,0,4.427-4.427" fill="#fccb37" fill-rule="evenodd"/>
        <path id="Trazado_726455" data-name="Trazado 726455" d="M345.559,241.58a4.427,4.427,0,0,0,4.425,4.427,4.425,4.425,0,0,0-4.425,4.427,4.427,4.427,0,0,0-4.427-4.427,4.428,4.428,0,0,0,4.427-4.427" fill="#fccb37" fill-rule="evenodd"/>
        <path id="Trazado_726456" data-name="Trazado 726456" d="M193.9,170.806a4.428,4.428,0,0,0,4.428,4.426,4.428,4.428,0,0,0-4.428,4.427,4.426,4.426,0,0,0-4.425-4.427,4.425,4.425,0,0,0,4.425-4.426" fill="#fccb37" fill-rule="evenodd"/>
        <path id="Trazado_726457" data-name="Trazado 726457" d="M296.7,55.866a4.426,4.426,0,0,0,4.427,4.427,4.424,4.424,0,0,0-4.427,4.426,4.426,4.426,0,0,0-4.428-4.426,4.428,4.428,0,0,0,4.428-4.427" fill="#fccb37" fill-rule="evenodd"/>
      </g>
    </g>
  </g>
</svg>
