<svg xmlns="http://www.w3.org/2000/svg" xmlns:xlink="http://www.w3.org/1999/xlink" width="67" height="67" viewBox="0 0 67 67">
  <defs>
    <clipPath id="clip-path">
      <rect id="Rect치ngulo_341181" data-name="Rect치ngulo 341181" width="52.662" height="65.941" fill="#34bc85"/>
    </clipPath>
  </defs>
  <g id="_2" data-name="2" transform="translate(-187.299 -704)">
    <g id="Grupo_958091" data-name="Grupo 958091" transform="translate(194.67 704.765)">
      <g id="Grupo_958090" data-name="Grupo 958090" clip-path="url(#clip-path)">
        <path id="Trazado_726001" data-name="Trazado 726001" d="M19.558,52.663a.966.966,0,0,1-.682-.282l-4.8-4.787L7.534,45.844a.966.966,0,0,1-.683-.682L5.091,38.619,2.017,35.552a.966.966,0,1,1,1.365-1.367l3.257,3.251a.966.966,0,0,1,.251.433l1.681,6.254,6.257,1.672a.966.966,0,0,1,.433.25l4.584,4.576L26.1,48.937a.965.965,0,0,1,.5,0l6.257,1.672,4.576-4.584a.964.964,0,0,1,.433-.25l6.255-1.681,1.671-6.258a.966.966,0,0,1,.249-.433l4.576-4.584-1.681-6.255a.966.966,0,0,1,0-.5L50.608,19.8l-4.584-4.576a.966.966,0,0,1-.25-.433L44.092,8.54,37.834,6.87a.966.966,0,0,1-.433-.25L32.817,2.044,26.562,3.725a.965.965,0,0,1-.5,0L19.8,2.055,15.228,6.639a.967.967,0,0,1-.433.25L8.54,8.571,6.869,14.829a.965.965,0,0,1-.25.433L2.044,19.846,3.725,26.1a.965.965,0,0,1,0,.5l-1.15,4.308a.966.966,0,0,1-1.866-.5l1.083-4.058L.033,19.809a.966.966,0,0,1,.249-.933l4.787-4.8L6.818,7.534A.966.966,0,0,1,7.5,6.85l6.544-1.759L18.831.3a.966.966,0,0,1,.933-.251L26.31,1.793,32.854.033a.966.966,0,0,1,.933.249l4.8,4.787,6.546,1.748a.966.966,0,0,1,.684.683l1.759,6.544,4.8,4.787a.966.966,0,0,1,.251.933L50.87,26.31l1.759,6.544a.965.965,0,0,1-.249.933l-4.787,4.8-1.748,6.546a.966.966,0,0,1-.682.684l-6.544,1.759-4.787,4.8a.965.965,0,0,1-.933.251l-6.546-1.749-6.544,1.76a.964.964,0,0,1-.251.033" transform="translate(0 0)" fill="#34bc85"/>
        <path id="Trazado_726002" data-name="Trazado 726002" d="M284.655,527.412a.966.966,0,0,1-.933-.716l-3.931-14.668a.966.966,0,1,1,1.866-.5l3.474,12.963,3.626-3.976a.966.966,0,0,1,1.006-.27l5.128,1.63-1.109-4.139a.966.966,0,0,1,1.866-.5l1.566,5.845a.966.966,0,0,1-1.226,1.17l-6.221-1.977-4.4,4.823a.966.966,0,0,1-.714.315" transform="translate(-252.735 -461.471)" fill="#34bc85"/>
        <path id="Trazado_726003" data-name="Trazado 726003" d="M400.249,477.359a.966.966,0,0,1-.932-.716l-1.458-5.443a.966.966,0,0,1,1.866-.5l1.458,5.443a.967.967,0,0,1-.934,1.216" transform="translate(-359.398 -424.587)" fill="#34bc85"/>
        <path id="Trazado_726004" data-name="Trazado 726004" d="M96.977,490.644a.966.966,0,0,1-.714-.315l-4.4-4.823-6.221,1.977a.966.966,0,0,1-1.226-1.171l4.15-15.484a.966.966,0,0,1,1.866.5l-3.693,13.778,5.128-1.63a.966.966,0,0,1,1.006.27l3.625,3.976,3.469-12.947a.966.966,0,1,1,1.866.5L97.91,489.928a.966.966,0,0,1-.933.716" transform="translate(-76.234 -424.703)" fill="#34bc85"/>
        <path id="Trazado_726005" data-name="Trazado 726005" d="M206.2,139.816H195.6a3.411,3.411,0,0,1-2.062-.7,5.326,5.326,0,0,0-3.207-.926.966.966,0,0,1-.909-.964V124.652a.966.966,0,0,1,.239-.636,21.356,21.356,0,0,1,3.5-3.07c2.289-1.708,3.8-2.836,3.624-6.239a2.712,2.712,0,0,1,2.708-2.853,2.692,2.692,0,0,1,2.592,1.912,14.509,14.509,0,0,1,.35,8.306h5.89a2.941,2.941,0,0,1,1.788,5.278,2.939,2.939,0,0,1-.661,3.947,2.939,2.939,0,0,1-.755,4.025,2.941,2.941,0,0,1-2.5,4.494m-14.846-3.486a6.421,6.421,0,0,1,3.359,1.248,1.468,1.468,0,0,0,.886.306h10.6a1.011,1.011,0,1,0,0-2.021h-.988a.966.966,0,0,1,0-1.932H207a1.011,1.011,0,0,0,0-2.021h-1.132a.966.966,0,0,1,0-1.932h1.789a1.011,1.011,0,1,0,0-2.021h-1.789a.966.966,0,0,1,0-1.932h2.459a1.011,1.011,0,1,0,0-2.021H201.1a.966.966,0,0,1-.9-1.317,12.215,12.215,0,0,0,.039-8.357.781.781,0,0,0-1.523.277c.23,4.434-2.018,6.112-4.4,7.888a20.767,20.767,0,0,0-2.964,2.528Z" transform="translate(-171.122 -101.05)" fill="#34bc85"/>
        <path id="Trazado_726006" data-name="Trazado 726006" d="M190.386,251.17a.966.966,0,0,1-.966-.966V237.636a.966.966,0,1,1,1.932,0V250.2a.966.966,0,0,1-.966.966" transform="translate(-171.123 -213.809)" fill="#34bc85"/>
        <path id="Trazado_726007" data-name="Trazado 726007" d="M82.353,229.891H74.336a.966.966,0,1,1,0-1.932h7.051V212.913H70.8a.966.966,0,1,1,0-1.932H82.353a.966.966,0,0,1,.966.966v16.978a.966.966,0,0,1-.966.966" transform="translate(-63.09 -190.602)" fill="#34bc85"/>
        <path id="Trazado_726008" data-name="Trazado 726008" d="M83.33,103.569a20.237,20.237,0,1,1,8.5-38.607.966.966,0,1,1-.813,1.753,18.32,18.32,0,0,0-25.373,11.88,18.356,18.356,0,0,0-.619,4.737,18.305,18.305,0,0,0,18.305,18.3A18.305,18.305,0,0,0,95.016,69.242a.966.966,0,0,1,1.234-1.486A20.237,20.237,0,0,1,83.33,103.569" transform="translate(-56.999 -57)" fill="#34bc85"/>
      </g>
    </g>
    <rect id="Rect치ngulo_341182" data-name="Rect치ngulo 341182" width="67" height="67" transform="translate(187.299 704)" fill="none"/>
  </g>
</svg>
