<svg xmlns="http://www.w3.org/2000/svg" width="71" height="71" viewBox="0 0 71 71">
  <g id="icon" transform="translate(-729 -1483)">
    <g id="Trazado_726699" data-name="Trazado 726699" transform="translate(729 1483)" fill="#fdf8e4">
      <path d="M 35.5 70 C 30.84209060668945 70 26.32403945922852 69.08796691894531 22.07135009765625 67.28923034667969 C 17.96323013305664 65.55164337158203 14.2735595703125 63.06393051147461 11.10482025146484 59.89517974853516 C 7.936069965362549 56.7264404296875 5.448359966278076 53.03676986694336 3.710769891738892 48.92864990234375 C 1.912029981613159 44.67596054077148 1 40.15790939331055 1 35.5 C 1 30.84209060668945 1.912029981613159 26.32403945922852 3.710769891738892 22.07135009765625 C 5.448359966278076 17.96323013305664 7.936069965362549 14.2735595703125 11.10482025146484 11.10482025146484 C 14.2735595703125 7.936069965362549 17.96323013305664 5.448359966278076 22.07135009765625 3.710769891738892 C 26.32403945922852 1.912029981613159 30.84209060668945 1 35.5 1 C 40.15790939331055 1 44.67596054077148 1.912029981613159 48.92864990234375 3.710769891738892 C 53.03676986694336 5.448359966278076 56.7264404296875 7.936069965362549 59.89517974853516 11.10482025146484 C 63.06393051147461 14.2735595703125 65.55164337158203 17.96323013305664 67.28923034667969 22.07135009765625 C 69.08796691894531 26.32403945922852 70 30.84209060668945 70 35.5 C 70 40.15790939331055 69.08796691894531 44.67596054077148 67.28923034667969 48.92864990234375 C 65.55164337158203 53.03676986694336 63.06393051147461 56.7264404296875 59.89517974853516 59.89517974853516 C 56.7264404296875 63.06393051147461 53.03676986694336 65.55164337158203 48.92864990234375 67.28923034667969 C 44.67596054077148 69.08796691894531 40.15790939331055 70 35.5 70 Z" stroke="none"/>
      <path d="M 35.5 2 C 30.97664260864258 2 26.58965682983398 2.885452270507812 22.46089935302734 4.63177490234375 C 18.47197723388672 6.318946838378906 14.88914489746094 8.734699249267578 11.81192398071289 11.81192398071289 C 8.734699249267578 14.88914489746094 6.318946838378906 18.47197723388672 4.63177490234375 22.46089935302734 C 2.885452270507812 26.58965682983398 2 30.97664260864258 2 35.5 C 2 40.02335357666016 2.885452270507812 44.41034698486328 4.63177490234375 48.53910064697266 C 6.318946838378906 52.52802276611328 8.734699249267578 56.11085510253906 11.81192398071289 59.18807983398438 C 14.88914489746094 62.26530075073242 18.47197723388672 64.68105316162109 22.46089935302734 66.36822509765625 C 26.58965682983398 68.11454772949219 30.97664260864258 69 35.5 69 C 40.02335357666016 69 44.41034698486328 68.11454772949219 48.53910064697266 66.36822509765625 C 52.52802276611328 64.68105316162109 56.11085510253906 62.26530075073242 59.18807983398438 59.18807983398438 C 62.26530075073242 56.11085510253906 64.68105316162109 52.52802276611328 66.36822509765625 48.53910064697266 C 68.11454772949219 44.41034698486328 69 40.02335357666016 69 35.5 C 69 30.97664260864258 68.11454772949219 26.58965682983398 66.36822509765625 22.46089935302734 C 64.68105316162109 18.47197723388672 62.26530075073242 14.88914489746094 59.18807983398438 11.81192398071289 C 56.11085510253906 8.734699249267578 52.52802276611328 6.318946838378906 48.53910064697266 4.63177490234375 C 44.41034698486328 2.885452270507812 40.02335357666016 2 35.5 2 M 35.5 0 C 55.10610961914062 0 71 15.89389038085938 71 35.5 C 71 55.10610961914062 55.10610961914062 71 35.5 71 C 15.89389038085938 71 0 55.10610961914062 0 35.5 C 0 15.89389038085938 15.89389038085938 0 35.5 0 Z" stroke="none" fill="#34bc85"/>
    </g>
    <g id="reciclar-senal" transform="translate(738.481 1485.861)">
      <path id="Trazado_726651" data-name="Trazado 726651" d="M133.9,20.564l-2.825-4.536H127.1a5.188,5.188,0,0,0-4.45,2.519l-2.637,4.285,9.356,5.954Z" transform="translate(-107.25 -7.15)" fill="#6a9923"/>
      <path id="Trazado_726652" data-name="Trazado 726652" d="M241.82,24.2l-3.274-5.625a4.793,4.793,0,0,0-4.253-2.552H224.1l7.645,14.459-4.253,2.552,12.657,1.44,6.054-12.5Z" transform="translate(-200.272 -7.15)" fill="#88b337"/>
      <path id="Trazado_726653" data-name="Trazado 726653" d="M354.215,184.028l-10.206,5.954,4.253,7.655h6.8l1.778-2.871a5.188,5.188,0,0,0,.121-5.247Z" transform="translate(-307.435 -157.289)" fill="#6a9923"/>
      <path id="Trazado_726654" data-name="Trazado 726654" d="M216.514,276.281v-4.253l-8.505,9.356,8.505,11.057v-3.4h6.8a4.633,4.633,0,0,0,4.253-2.552l5.954-10.206Z" transform="translate(-185.894 -235.933)" fill="#88b337"/>
      <path id="Trazado_726655" data-name="Trazado 726655" d="M70.6,320.028,68.529,324.8l2.588,4.483a5.4,5.4,0,0,0,4.586,2.651h3.4V320.028Z" transform="translate(-61.243 -278.83)" fill="#6a9923"/>
      <path id="Trazado_726656" data-name="Trazado 726656" d="M26.72,155.085l-5.1-11.057-13.608.851,4.864,3.016-3.163,6.34a5.263,5.263,0,0,0,0,5.1l4.732,8.175,1.771-3.072,6.321-10.972Z" transform="translate(-7.157 -121.542)" fill="#88b337"/>
      <path id="Trazado_726657" data-name="Trazado 726657" d="M126.491,26.069a.85.85,0,0,0,.735.665l12.658,1.439a.906.906,0,0,0,.1.005.851.851,0,0,0,.765-.48L146.8,15.2a.85.85,0,0,0-1.15-1.129l-3.666,1.859L139.114,11a5.625,5.625,0,0,0-4.988-2.977H119.949a6.065,6.065,0,0,0-5.174,2.924l-2.637,4.285a.85.85,0,0,0,.268,1.164l9.356,5.954a.851.851,0,0,0,.456.133.837.837,0,0,0,.209-.026.85.85,0,0,0,.534-.411l3.572-6.427,3.912,7.4-3.562,2.137a.851.851,0,0,0-.394.91Zm-4.578-5.636-7.887-5.018,2.2-3.579a4.36,4.36,0,0,1,3.72-2.108H123.4l2.108,4.231Zm10.1,3.633a.85.85,0,0,0,.314-1.126L125.341,9.729h8.785a3.963,3.963,0,0,1,3.518,2.126l3.273,5.625a.85.85,0,0,0,1.119.329l2.131-1.08-4.69,9.687-9.567-1.088Z" transform="translate(-100.104)"/>
      <path id="Trazado_726658" data-name="Trazado 726658" d="M221.157,201.08l5.954-10.2,1.769-2.858a6.027,6.027,0,0,0,.158-6.074l-2.749-5.491a.851.851,0,0,0-1.141-.381l-.05.027-10.206,5.954a.851.851,0,0,0-.315,1.148l3.548,6.394h-7.91v-3.4a.851.851,0,0,0-1.48-.572l-8.505,9.356a.851.851,0,0,0-.044,1.091l8.505,11.057a.851.851,0,0,0,1.524-.519v-2.552h5.954a5.443,5.443,0,0,0,4.987-2.977Zm-4.69-17.971,8.7-5.078,2.36,4.712a4.343,4.343,0,0,1-.1,4.387L225.9,189.6h-5.827Zm-7.1,19.246a.851.851,0,0,0-.851.851v.9l-6.549-8.51,6.549-7.2v2.053a.851.851,0,0,0,.851.851h15.53l-5.217,8.944a3.789,3.789,0,0,1-3.508,2.113Z" transform="translate(-178.745 -150.101)"/>
      <path id="Trazado_726659" data-name="Trazado 726659" d="M.4,138.438l4.2,2.608L1.8,146.666a6.124,6.124,0,0,0,.015,5.933l4.733,8.174,2.588,4.483a6.248,6.248,0,0,0,5.322,3.078h3.4a.851.851,0,0,0,.851-.851V155.576a.851.851,0,0,0-.851-.851H11.508l4.242-7.361,3.508,1.351a.851.851,0,0,0,1.078-1.15l-5.1-11.057a.851.851,0,0,0-.826-.494L.8,136.865a.851.851,0,0,0-.4,1.572Zm16.608,28.195H14.46a4.519,4.519,0,0,1-3.85-2.226l-2.335-4.045,2.409-3.935h6.328Zm-3.08-28.883,3.98,8.624-2.23-.859a.851.851,0,0,0-1.042.369L7.283,158.649l-3.994-6.9a4.423,4.423,0,0,1,.029-4.3l3.163-6.34A.85.85,0,0,0,6.168,140l-2.6-1.609Z" transform="translate(0 -114.378)"/>
    </g>
  </g>
</svg>
